<?xml version="1.0" encoding="utf-8"?>
<svg xmlns="http://www.w3.org/2000/svg" viewBox="0 0 353.186 412.941">
  <g id="exierKoBlYD1" transform="matrix(0.861384, 0, 0, 0.769684, 541.883118, 38.158161)" style="">
    <g transform="matrix(1, 0, 0, 1, -630.324036, -49.92979)"/>
    <path d="M -593.79 -48.93 C -583.22 -45.928 -573.08 -43.043 -563.03 -39.887 C -555.2 -37.428 -547.49 -34.549 -539.68 -32.008 C -529.13 -28.573 -518.5 -25.327 -507.94 -21.92 C -496.74 -18.308 -485.57 -14.593 -474.38 -10.942 C -464.11 -7.592 -453.84 -4.249 -443.56 -0.939 C -432.05 2.768 -420.52 6.404 -409.02 10.126 C -398.9 13.399 -388.81 16.772 -378.7 20.057 C -369.97 22.895 -361.2 25.636 -352.47 28.486 C -339.76 32.634 -327.09 36.894 -314.38 41.008 C -303.5 44.526 -292.56 47.843 -281.69 51.365 C -270.98 54.836 -260.4 58.759 -249.6 61.934 C -233.86 66.562 -224.51 76.929 -220.57 92.554 C -220.29 93.658 -220.33 94.86 -220.33 96.017 C -220.33 122.673 -220.35 149.329 -220.82 176.482 C -229.63 180.01 -237.95 183.112 -246.34 186.034 C -248.94 186.939 -251.7 187.357 -254.23 187.648 C -253.65 184.231 -253.24 181.164 -252.82 178.097 C -254.66 177.925 -256.69 177.167 -258.32 177.684 C -264.61 179.682 -270.74 182.152 -276.97 184.326 C -292.18 189.633 -307.36 195.046 -322.68 200.026 C -326.93 201.409 -331.8 202.519 -336.1 201.849 C -346.45 200.233 -356.72 197.853 -366.85 195.116 C -381.78 191.083 -396.52 186.377 -411.39 182.133 C -429.21 177.046 -447.1 172.217 -464.92 167.139 C -479.81 162.896 -494.65 158.493 -509.49 154.092 C -525.86 149.237 -542.2 144.261 -558.57 139.422 C -568.29 136.55 -577.99 133.553 -587.83 131.145 C -596.19 129.099 -598.36 127.431 -597.88 121.393 C -589.19 120.561 -580.5 119.721 -571.8 118.882 C -578.1 115.355 -584.57 112.643 -591.09 110.067 C -600.47 106.366 -613.39 92.254 -611.25 81.579 C -610.4 77.353 -608.74 73.281 -607.32 69.18 C -605.38 63.546 -603.27 57.971 -601.34 52.334 C -599.53 47.033 -598.34 41.457 -595.98 36.418 C -593.58 31.275 -593.47 26.638 -597.44 22.518 C -600.63 19.2 -603.07 15.402 -603.21 10.849 C -603.38 5.38 -606.69 2.728 -610.74 0.25 C -612.11 -0.582 -614.06 -1.808 -614.2 -3.028 C -614.72 -7.666 -615.27 -12.479 -614.55 -17.03 C -613.74 -22.202 -611.59 -27.163 -610.06 -32.094 C -612.19 -32.964 -613.85 -33.64 -614.97 -34.1 C -613.28 -39.511 -611.8 -44.22 -610.32 -48.93 C -604.97 -48.93 -599.61 -48.93 -593.79 -48.93 Z" fill="#009b4c" style="stroke-width: 1;"/>
    <path d="M -254.39 187.998 C -251.7 187.357 -248.94 186.939 -246.34 186.034 C -237.95 183.112 -229.63 180.01 -220.9 176.934 C -220.45 199.713 -220.36 222.537 -220.33 245.361 C -220.3 266.689 -220.06 288.022 -220.4 309.345 C -220.71 329.062 -228.07 338.499 -245.45 345.25 C -253.98 348.562 -377.02 394.991 -379.47 396.005 C -387.36 399.267 -395.3 402.415 -403.26 405.516 C -413.21 409.395 -423.2 413.15 -433.16 417.018 C -449.92 423.53 -466.66 430.108 -483.42 436.623 C -502.8 444.159 -522.24 451.55 -541.58 459.207 C -557.96 465.695 -574.22 472.515 -590.56 479.101 C -597.25 481.796 -604.03 484.263 -611.32 487.041 C -611.32 480.559 -613.13 473.559 -610.93 468.202 C -606.7 457.883 -608.91 447.081 -606.19 436.881 C -605.63 434.777 -603.46 433.105 -601.8 430.939 C -602.54 430.705 -603.53 430.177 -604.55 430.107 C -610.47 429.702 -616.41 429.547 -622.31 428.981 C -624.02 428.817 -627.01 427.587 -627.01 426.835 C -627.02 424.963 -626.07 422.674 -624.74 421.297 C -622.25 418.727 -617.21 416.901 -616.94 414.369 C -616.63 411.475 -620.34 408.138 -622.34 405.012 C -624.42 401.756 -626.53 398.522 -628.98 395.174 C -629.32 391.377 -629.32 387.684 -628.98 383.425 C -626.87 380.76 -625.37 378.327 -623.28 376.627 C -617.59 371.992 -611.65 367.653 -605.79 363.22 C -599.23 358.258 -596.61 353.246 -599.53 348.423 C -601.94 344.456 -605.84 341.332 -609.34 338.121 C -611.87 335.803 -612.2 332.873 -609.42 330.699 C -607.73 329.378 -605.78 328.4 -603.62 327.07 C -606.35 324.764 -607.38 323.893 -608.87 322.642 C -606.01 321.656 -603.74 320.946 -601.52 320.092 C -585.96 314.102 -570.43 308.018 -554.84 302.091 C -539.91 296.414 -524.92 290.9 -509.97 285.296 C -496.17 280.127 -482.37 274.978 -468.6 269.74 C -450.15 262.72 -431.74 255.595 -413.3 248.565 C -396.73 242.251 -380.12 236.046 -363.56 229.714 C -345 222.617 -326.5 215.391 -307.94 208.296 C -290.11 201.48 -272.24 194.76 -254.39 187.998 Z" fill="#256e8e" style="stroke-width: 1;"/>
  </g>
</svg>