<?xml version="1.0" encoding="UTF-8"?>
<svg xmlns="http://www.w3.org/2000/svg" xmlns:xlink="http://www.w3.org/1999/xlink" width="155px" height="56px" viewBox="0 0 156 56" version="1.1">
<g id="surface1">
<path style=" stroke:none;fill-rule:nonzero;fill:rgb(100%,100%,100%);fill-opacity:1;" d="M 156.082031 40.875 C 156.082031 45.941406 156.082031 51.011719 156.082031 56.082031 C 117.3125 56.082031 78.539062 56.082031 39.742188 56.050781 C 40.371094 55.910156 40.796875 55.46875 41.039062 54.914062 C 41.355469 54.195312 41.632812 53.449219 41.800781 52.683594 C 42.125 51.242188 42.359375 49.777344 42.644531 48.324219 C 42.6875 48.101562 42.765625 47.851562 42.917969 47.699219 C 43.082031 47.527344 43.34375 47.449219 43.5625 47.335938 C 44.246094 46.980469 44.941406 46.640625 45.609375 46.265625 C 45.890625 46.105469 46.089844 45.859375 45.90625 45.488281 C 45.726562 45.109375 45.421875 44.9375 45.046875 45.027344 C 44.441406 45.175781 43.835938 45.332031 43.226562 45.484375 C 43.222656 45.480469 43.199219 45.4375 43.210938 45.402344 C 43.433594 44.582031 43.675781 43.761719 43.878906 42.933594 C 43.941406 42.671875 43.984375 42.34375 43.882812 42.113281 C 43.667969 41.621094 42.347656 41.492188 42.074219 41.972656 C 41.988281 42.128906 41.953125 42.316406 41.878906 42.480469 C 41.589844 43.09375 41.328125 43.726562 40.988281 44.308594 C 40.707031 44.792969 40.328125 45.21875 39.996094 45.671875 C 39.953125 45.65625 39.910156 45.636719 39.867188 45.621094 C 39.835938 45.527344 39.773438 45.433594 39.78125 45.34375 C 39.855469 44.273438 39.941406 43.203125 40.023438 42.136719 C 40.050781 41.757812 40.054688 41.378906 40.109375 41.007812 C 40.179688 40.527344 39.84375 40.390625 39.515625 40.253906 C 39.175781 40.109375 38.359375 40.375 38.3125 40.644531 C 38.238281 41.078125 38.195312 41.515625 38.140625 41.949219 C 38.035156 42.808594 37.933594 43.667969 37.820312 44.523438 C 37.792969 44.726562 37.800781 44.996094 37.679688 45.117188 C 37.292969 45.492188 36.855469 45.8125 36.4375 46.15625 C 36.398438 46.128906 36.355469 46.101562 36.316406 46.070312 C 36.464844 44.230469 37.363281 42.589844 37.847656 40.863281 C 35.632812 40.3125 34.148438 41.523438 32.640625 42.878906 C 32.746094 42.402344 32.632812 42.085938 32.203125 42.039062 C 31.996094 42.015625 31.765625 42.109375 31.558594 42.183594 C 30.824219 42.445312 30.089844 42.71875 29.304688 43.007812 C 28.207031 42.035156 27.078125 41.066406 25.988281 40.054688 C 25.308594 39.417969 24.730469 38.679688 24.363281 37.8125 C 23.898438 36.730469 24.285156 35.78125 25.355469 35.398438 C 25.714844 35.269531 26.078125 35.160156 26.445312 35.074219 C 27.257812 34.886719 28.03125 34.925781 28.683594 35.53125 C 29.046875 35.871094 29.414062 36.210938 29.78125 36.550781 C 29.875 36.636719 29.96875 36.722656 30.148438 36.886719 C 30.175781 36.132812 30.234375 35.492188 30.203125 34.855469 C 30.191406 34.558594 30.0625 34.234375 29.894531 33.984375 C 29.496094 33.390625 28.882812 33.039062 28.207031 32.875 C 27.007812 32.582031 25.855469 32.863281 24.753906 33.320312 C 24.066406 33.601562 23.539062 34.117188 23.089844 34.71875 C 22.253906 35.847656 21.929688 37.101562 22.328125 38.449219 C 22.632812 39.492188 23.230469 40.414062 23.984375 41.203125 C 24.640625 41.890625 25.339844 42.539062 26.039062 43.1875 C 26.425781 43.542969 26.851562 43.859375 27.265625 44.203125 C 26.734375 44.625 26.179688 45.023438 25.675781 45.476562 C 25.164062 45.933594 24.675781 46.421875 24.21875 46.9375 C 23.714844 47.496094 23.296875 48.128906 23.128906 48.875 C 22.953125 49.652344 23.597656 50.191406 24.199219 50.210938 C 25.101562 50.238281 25.910156 50 26.726562 49.636719 C 28.003906 49.0625 29.136719 48.289062 30.1875 47.3125 C 30.230469 47.453125 30.269531 47.574219 30.300781 47.695312 C 30.429688 48.183594 30.90625 48.511719 31.300781 48.457031 C 31.777344 48.386719 32.273438 48.222656 32.691406 47.980469 C 33.257812 47.652344 33.757812 47.210938 34.304688 46.804688 C 34.304688 46.867188 34.304688 46.929688 34.304688 46.992188 C 34.3125 47.820312 34.648438 48.191406 35.464844 48.136719 C 35.871094 48.109375 36.285156 47.953125 36.660156 47.78125 C 37.074219 47.589844 37.449219 47.316406 37.859375 47.066406 C 38.226562 48.082031 39.0625 47.933594 39.898438 47.878906 C 39.007812 48.867188 38.339844 49.945312 37.917969 51.148438 C 37.644531 51.9375 37.449219 52.769531 37.347656 53.601562 C 37.261719 54.289062 37.308594 55.027344 37.824219 55.59375 C 38.015625 55.800781 38.304688 55.921875 38.550781 56.082031 C 25.734375 56.082031 12.917969 56.082031 0.0820312 56.082031 C 0.0820312 49.539062 0.0820312 42.996094 0.109375 36.425781 C 0.308594 36.660156 0.480469 36.925781 0.652344 37.191406 C 0.816406 37.449219 1.117188 37.71875 1.09375 37.957031 C 1.070312 38.164062 0.660156 38.3125 0.457031 38.523438 C 0.347656 38.636719 0.269531 38.824219 0.269531 38.976562 C 0.269531 39.039062 0.515625 39.136719 0.652344 39.152344 C 1.136719 39.199219 1.621094 39.210938 2.105469 39.242188 C 2.1875 39.25 2.269531 39.292969 2.328125 39.3125 C 2.195312 39.488281 2.015625 39.625 1.972656 39.796875 C 1.75 40.632812 1.929688 41.515625 1.585938 42.359375 C 1.40625 42.796875 1.550781 43.367188 1.550781 43.898438 C 2.148438 43.671875 2.703125 43.46875 3.246094 43.25 C 4.582031 42.710938 5.910156 42.152344 7.25 41.621094 C 8.828125 40.996094 10.414062 40.394531 12 39.777344 C 13.367188 39.242188 14.734375 38.707031 16.101562 38.175781 C 16.917969 37.859375 17.734375 37.550781 18.546875 37.234375 C 19.195312 36.980469 19.84375 36.722656 20.488281 36.457031 C 20.6875 36.375 20.953125 36.300781 21.050781 36.140625 C 21.238281 35.832031 21.320312 35.460938 21.460938 35.125 C 21.886719 34.113281 22.574219 33.324219 23.46875 32.695312 C 24.289062 32.117188 25.222656 31.886719 26.191406 31.675781 C 27.386719 31.421875 28.550781 31.492188 29.539062 32.15625 C 30.222656 32.617188 30.738281 32.578125 31.433594 32.308594 C 32.855469 31.753906 33.457031 30.984375 33.480469 29.371094 C 33.507812 27.628906 33.488281 25.882812 33.488281 24.140625 C 33.484375 22.273438 33.476562 20.410156 33.476562 18.507812 C 33.484375 16.289062 33.484375 14.109375 33.484375 11.929688 C 33.484375 11.835938 33.488281 11.738281 33.46875 11.648438 C 33.144531 10.371094 32.382812 9.523438 31.097656 9.144531 C 30.214844 8.886719 29.351562 8.566406 28.476562 8.28125 C 27.585938 7.992188 26.691406 7.722656 25.804688 7.433594 C 24.765625 7.097656 23.730469 6.75 22.695312 6.410156 C 21.980469 6.175781 21.265625 5.953125 20.550781 5.722656 C 19.726562 5.453125 18.902344 5.175781 18.074219 4.910156 C 17.136719 4.605469 16.195312 4.308594 15.253906 4.003906 C 14.414062 3.734375 13.574219 3.460938 12.738281 3.1875 C 11.824219 2.890625 10.910156 2.585938 9.996094 2.289062 C 9.132812 2.011719 8.265625 1.746094 7.402344 1.464844 C 6.765625 1.257812 6.136719 1.023438 5.496094 0.820312 C 4.675781 0.5625 3.847656 0.328125 3.023438 0.0820312 C 54.03125 0.0820312 105.042969 0.0820312 156.082031 0.0820312 C 156.082031 13.4375 156.082031 26.792969 156.054688 40.175781 C 155.855469 40.074219 155.691406 39.835938 155.519531 39.832031 C 154.945312 39.820312 154.367188 39.890625 153.792969 39.9375 C 153.253906 39.980469 152.714844 40.035156 152.125 40.089844 C 152.238281 39.261719 152.339844 38.523438 152.433594 37.78125 C 152.449219 37.648438 152.453125 37.496094 152.402344 37.378906 C 152.242188 36.988281 151.644531 36.839844 151.085938 37 C 150.675781 37.121094 150.429688 37.371094 150.367188 37.789062 C 150.25 38.535156 150.152344 39.285156 150.03125 40.03125 C 149.996094 40.257812 149.882812 40.398438 149.597656 40.394531 C 149.140625 40.386719 148.667969 40.375 148.234375 40.488281 C 147.835938 40.589844 147.539062 40.578125 147.125 40.433594 C 146.140625 40.089844 145.175781 40.347656 144.382812 41.027344 C 143.085938 42.140625 142.4375 43.625 142.027344 45.265625 C 141.953125 45.09375 141.878906 44.910156 141.875 44.726562 C 141.863281 43.976562 141.886719 43.226562 141.863281 42.476562 C 141.851562 42.152344 141.792969 41.816406 141.699219 41.503906 C 141.457031 40.691406 140.574219 40.382812 139.886719 40.867188 C 139.585938 41.082031 139.316406 41.34375 139.003906 41.609375 C 139.113281 41.082031 139.21875 40.585938 139.324219 40.074219 C 139.035156 39.976562 138.738281 39.90625 138.464844 39.785156 C 138 39.578125 137.597656 39.707031 137.328125 40.132812 C 137.253906 40.25 137.082031 40.34375 136.941406 40.378906 C 136.324219 40.519531 135.691406 40.597656 135.089844 40.769531 C 134.667969 40.890625 134.285156 41.136719 133.867188 41.332031 C 133.867188 41.125 133.867188 40.925781 133.867188 40.726562 C 133.867188 40.519531 133.867188 40.316406 133.867188 40.121094 C 133.625 39.992188 133.402344 39.859375 133.167969 39.746094 C 132.625 39.488281 132.101562 39.90625 132.003906 40.34375 C 131.960938 40.550781 131.929688 40.761719 131.90625 40.972656 C 131.820312 41.769531 131.75 42.570312 131.652344 43.363281 C 131.636719 43.515625 131.574219 43.703125 131.464844 43.789062 C 130.726562 44.371094 129.976562 44.941406 129.210938 45.484375 C 128.914062 45.691406 128.558594 45.820312 128.136719 46.03125 C 128.847656 45.367188 129.53125 44.847656 130.0625 44.199219 C 130.554688 43.601562 130.953125 42.898438 131.265625 42.1875 C 131.597656 41.433594 131.257812 40.699219 130.542969 40.496094 C 130.175781 40.386719 129.75 40.398438 129.363281 40.449219 C 128.996094 40.496094 128.699219 40.515625 128.472656 40.164062 C 128.40625 40.058594 128.253906 39.9375 128.148438 39.945312 C 127.402344 39.992188 126.660156 40.070312 125.917969 40.136719 C 125.574219 40.167969 125.234375 40.195312 124.863281 40.226562 C 124.894531 40.136719 124.914062 40.101562 124.917969 40.066406 C 125.042969 39.292969 125.183594 38.523438 125.277344 37.75 C 125.296875 37.597656 125.179688 37.375 125.058594 37.265625 C 124.496094 36.773438 123.269531 37.066406 123.164062 37.914062 C 123.089844 38.503906 122.984375 39.09375 122.925781 39.6875 C 122.855469 40.421875 122.824219 40.425781 122.074219 40.480469 C 121.402344 40.527344 120.691406 40.527344 120.152344 41.042969 C 119.160156 40.4375 118.480469 40.972656 117.859375 41.691406 C 117.859375 41.582031 117.847656 41.503906 117.859375 41.433594 C 117.921875 41.082031 118.007812 40.734375 118.050781 40.382812 C 118.0625 40.28125 117.984375 40.109375 117.902344 40.070312 C 117.679688 39.964844 117.429688 39.925781 117.199219 39.84375 C 116.738281 39.683594 116.152344 39.949219 116.066406 40.390625 C 115.8125 41.644531 115.574219 42.902344 115.324219 44.160156 C 115.136719 45.105469 114.949219 46.050781 114.757812 46.992188 C 114.644531 47.546875 114.855469 47.917969 115.363281 48.054688 C 115.683594 48.136719 116.378906 48.015625 116.464844 47.855469 C 117.203125 46.488281 117.945312 45.121094 118.683594 43.753906 C 118.792969 43.941406 118.816406 44.113281 118.835938 44.285156 C 118.917969 44.929688 118.945312 45.589844 119.105469 46.214844 C 119.207031 46.617188 119.449219 47 119.910156 47.183594 C 120.585938 47.449219 121.128906 47.21875 121.621094 46.800781 C 122.15625 46.347656 122.058594 45.917969 121.40625 45.699219 C 121.257812 45.648438 121.09375 45.613281 120.96875 45.527344 C 120.859375 45.453125 120.730469 45.3125 120.726562 45.203125 C 120.707031 44.335938 120.714844 43.472656 120.714844 42.632812 C 121.316406 42.558594 121.867188 42.492188 122.429688 42.425781 C 122.429688 42.558594 122.441406 42.640625 122.429688 42.71875 C 122.324219 43.386719 122.164062 44.050781 122.117188 44.722656 C 122.0625 45.535156 122.058594 46.359375 122.121094 47.171875 C 122.160156 47.648438 122.375 48.121094 122.890625 48.324219 C 123.804688 48.683594 124.675781 48.527344 125.464844 48 C 125.964844 47.664062 126.402344 47.296875 126.949219 47.886719 C 126.964844 47.902344 127 47.902344 127.027344 47.90625 C 127.96875 48.007812 128.84375 47.808594 129.617188 47.253906 C 130.160156 46.867188 130.6875 46.449219 131.316406 45.972656 C 131.234375 46.34375 131.183594 46.601562 131.117188 46.855469 C 130.949219 47.496094 131.097656 47.925781 131.570312 47.96875 C 131.914062 47.996094 132.285156 47.921875 132.617188 47.8125 C 132.789062 47.753906 133.003906 47.542969 133.03125 47.371094 C 133.203125 46.410156 133.515625 45.5 133.835938 44.578125 C 134.363281 43.058594 135.429688 42.3125 136.964844 42.011719 C 136.847656 42.671875 136.75 43.304688 136.625 43.933594 C 136.421875 44.96875 136.1875 45.996094 135.984375 47.027344 C 135.871094 47.597656 136.136719 47.90625 136.695312 47.90625 C 136.996094 47.90625 137.292969 47.90625 137.546875 47.90625 C 138.359375 46.445312 139.152344 45.015625 139.964844 43.558594 C 140.007812 43.757812 140.054688 43.910156 140.070312 44.066406 C 140.132812 44.675781 140.164062 45.292969 140.242188 45.902344 C 140.34375 46.722656 141.132812 47.363281 141.90625 47.144531 C 142.351562 47.019531 142.617188 47.160156 142.925781 47.371094 C 143.035156 47.445312 143.125 47.558594 143.246094 47.601562 C 143.574219 47.71875 143.921875 47.910156 144.246094 47.886719 C 144.910156 47.832031 145.554688 47.613281 146.109375 47.214844 C 146.691406 46.796875 147.285156 46.386719 147.8125 45.90625 C 148.382812 45.390625 149.007812 44.898438 149.242188 44.097656 C 149.332031 43.792969 149.347656 43.523438 149.085938 43.347656 C 148.804688 43.15625 148.507812 43.210938 148.246094 43.441406 C 147.832031 43.808594 147.441406 44.214844 146.988281 44.523438 C 146.285156 45.007812 145.542969 45.425781 144.800781 45.855469 C 144.773438 45.828125 144.761719 45.820312 144.769531 45.789062 C 144.824219 45.730469 144.855469 45.683594 144.898438 45.652344 C 146.109375 44.824219 147.09375 43.808594 147.691406 42.457031 C 148.332031 42.414062 148.964844 42.367188 149.621094 42.320312 C 149.597656 42.636719 149.59375 42.972656 149.542969 43.296875 C 149.351562 44.441406 149.1875 45.585938 149.300781 46.75 C 149.363281 47.402344 149.503906 48.003906 150.195312 48.269531 C 150.78125 48.492188 151.367188 48.410156 151.949219 48.242188 C 152.570312 48.070312 153.050781 47.679688 153.449219 47.210938 C 153.757812 46.851562 153.953125 46.363281 153.675781 46.101562 C 153.417969 45.863281 152.835938 45.878906 152.46875 46.167969 C 152.28125 46.316406 152.101562 46.488281 151.894531 46.597656 C 151.511719 46.796875 151.238281 46.664062 151.191406 46.246094 C 151.152344 45.9375 151.148438 45.617188 151.191406 45.308594 C 151.304688 44.457031 151.460938 43.609375 151.585938 42.757812 C 151.667969 42.203125 151.78125 42.039062 152.335938 41.941406 C 153.167969 41.789062 154.007812 41.667969 154.839844 41.527344 C 155.324219 41.449219 155.84375 41.429688 156.082031 40.875 M 55.5625 37.550781 C 55.550781 37.539062 55.542969 37.527344 55.539062 37.449219 C 55.621094 36.992188 55.683594 36.535156 55.785156 36.085938 C 56.027344 35.019531 56.265625 33.945312 56.183594 32.84375 C 56.113281 31.835938 55.519531 31.433594 54.515625 31.714844 C 53.746094 31.929688 53.15625 32.433594 52.589844 32.976562 C 51.285156 34.226562 50.300781 35.726562 49.347656 37.242188 C 48.683594 38.308594 48.144531 39.453125 47.527344 40.550781 C 47.367188 40.839844 47.308594 41.136719 47.511719 41.359375 C 47.738281 41.609375 48.078125 41.683594 48.433594 41.578125 C 49.109375 41.375 49.546875 40.9375 49.828125 40.292969 C 50.0625 39.757812 50.324219 39.230469 50.628906 38.730469 C 51.164062 37.859375 51.71875 36.996094 52.304688 36.160156 C 52.796875 35.460938 53.347656 34.804688 53.871094 34.132812 C 53.976562 34.234375 53.992188 34.28125 53.984375 34.328125 C 53.90625 34.988281 53.863281 35.65625 53.730469 36.304688 C 53.453125 37.632812 53.121094 38.949219 52.824219 40.269531 C 52.550781 41.464844 52.277344 42.660156 52.03125 43.859375 C 51.796875 45.007812 51.605469 46.167969 51.363281 47.316406 C 51.300781 47.609375 51.210938 47.84375 51.53125 48.027344 C 51.78125 48.164062 51.996094 48.394531 52.257812 48.460938 C 52.566406 48.539062 52.90625 48.480469 53.320312 48.480469 C 54.070312 44.921875 55.765625 41.753906 57.335938 38.644531 C 57.335938 39.398438 57.34375 40.234375 57.332031 41.074219 C 57.328125 41.460938 57.28125 41.847656 57.253906 42.238281 C 57.144531 43.640625 57 45.042969 56.9375 46.449219 C 56.882812 47.738281 57.761719 48.207031 58.886719 47.929688 C 59.390625 47.804688 59.851562 47.480469 60.324219 47.25 C 60.460938 47.429688 60.597656 47.730469 60.832031 47.894531 C 61.660156 48.476562 62.488281 48.347656 63.246094 47.667969 C 64.34375 46.679688 65.089844 45.445312 65.566406 44.0625 C 65.742188 43.554688 65.832031 42.964844 65.765625 42.433594 C 65.667969 41.636719 64.964844 41.289062 64.292969 41.054688 C 63.628906 40.820312 62.925781 40.699219 62.230469 40.554688 C 61.996094 40.503906 61.6875 40.429688 61.507812 40.535156 C 61.058594 40.789062 60.660156 41.140625 60.238281 41.457031 C 60.257812 41.480469 60.3125 41.550781 60.371094 41.613281 C 60.894531 42.171875 60.878906 42.164062 60.675781 42.886719 C 60.515625 43.457031 60.414062 44.042969 60.273438 44.617188 C 60.230469 44.789062 60.191406 45.007812 60.070312 45.113281 C 59.730469 45.40625 59.351562 45.652344 58.976562 45.925781 C 59.003906 45.636719 59.03125 45.375 59.050781 45.109375 C 59.082031 44.628906 59.085938 44.140625 59.140625 43.660156 C 59.261719 42.519531 59.457031 41.386719 59.527344 40.246094 C 59.59375 39.148438 59.558594 38.039062 59.53125 36.9375 C 59.523438 36.605469 59.4375 36.253906 59.300781 35.949219 C 58.859375 34.984375 57.621094 35.242188 57.011719 35.71875 C 56.375 36.214844 55.960938 36.882812 55.5625 37.550781 M 88.867188 6.542969 C 76.488281 6.542969 64.109375 6.542969 51.722656 6.542969 C 51.722656 8.792969 51.722656 11.003906 51.722656 13.253906 C 56.675781 13.253906 61.609375 13.253906 66.574219 13.253906 C 66.574219 20.648438 66.574219 28.011719 66.574219 35.375 C 69.257812 35.375 71.902344 35.375 74.582031 35.375 C 74.582031 27.988281 74.582031 20.628906 74.582031 13.242188 C 74.765625 13.242188 74.914062 13.242188 75.058594 13.242188 C 79.550781 13.242188 84.042969 13.246094 88.53125 13.242188 C 88.671875 13.242188 88.808594 13.195312 89.007812 13.132812 C 89.015625 10.988281 89.019531 8.847656 89.023438 6.703125 C 89.023438 6.652344 88.972656 6.601562 88.867188 6.542969 M 100.851562 35.289062 C 100.859375 35.195312 100.867188 35.097656 100.867188 35.003906 C 100.871094 28.363281 100.871094 21.726562 100.867188 15.085938 C 100.867188 14.992188 100.859375 14.894531 100.867188 14.734375 C 100.976562 14.472656 101.042969 14.179688 101.199219 13.949219 C 101.6875 13.25 102.460938 13.171875 103.207031 13.171875 C 109.574219 13.15625 115.945312 13.160156 122.316406 13.164062 C 122.433594 13.164062 122.546875 13.175781 122.699219 13.183594 C 122.699219 20.609375 122.699219 28 122.699219 35.378906 C 125.398438 35.378906 128.0625 35.378906 130.742188 35.378906 C 130.742188 25.765625 130.742188 16.167969 130.742188 6.539062 C 130.566406 6.539062 130.40625 6.539062 130.246094 6.539062 C 121.195312 6.539062 112.140625 6.535156 103.089844 6.546875 C 102.246094 6.546875 101.402344 6.636719 100.558594 6.707031 C 99.609375 6.78125 98.730469 7.125 97.882812 7.523438 C 96.625 8.121094 95.539062 8.957031 94.59375 9.992188 C 93.339844 11.363281 92.71875 12.984375 92.710938 14.808594 C 92.6875 21.523438 92.703125 28.242188 92.703125 34.957031 C 92.703125 35.09375 92.703125 35.226562 92.703125 35.367188 C 92.933594 35.421875 93.046875 35.40625 93.121094 35.140625 C 93.421875 34.046875 93.703125 32.945312 94.398438 32.003906 C 95.121094 31.027344 96.589844 30.007812 98.117188 30.578125 C 98.800781 30.835938 99.355469 31.300781 99.628906 31.976562 C 100.003906 32.902344 100.015625 33.875 99.730469 34.84375 C 99.679688 35.011719 99.667969 35.195312 99.628906 35.433594 C 100.058594 35.394531 100.425781 35.359375 100.851562 35.289062 M 38.140625 18.273438 C 38.140625 23.972656 38.140625 29.675781 38.140625 35.375 C 40.863281 35.375 43.535156 35.375 46.203125 35.375 C 46.203125 25.753906 46.203125 16.160156 46.203125 6.566406 C 43.507812 6.566406 40.835938 6.566406 38.140625 6.566406 C 38.140625 10.457031 38.140625 14.324219 38.140625 18.273438 M 93.847656 37.578125 C 93.8125 37.824219 93.78125 38.078125 93.734375 38.324219 C 93.554688 39.257812 93.375 40.191406 93.191406 41.121094 C 93.128906 41.425781 93.105469 41.769531 92.765625 41.90625 C 92.109375 42.171875 91.445312 42.421875 90.777344 42.648438 C 90.671875 42.683594 90.492188 42.601562 90.386719 42.519531 C 89.851562 42.113281 89.328125 41.6875 88.804688 41.265625 C 87.621094 40.320312 86.523438 39.300781 85.75 37.96875 C 85.082031 36.824219 85.144531 35.898438 86.214844 35.253906 C 86.617188 35.011719 87.109375 34.902344 87.574219 34.777344 C 88.429688 34.550781 89.234375 34.6875 89.917969 35.273438 C 90.269531 35.582031 90.582031 35.9375 90.921875 36.261719 C 91.015625 36.351562 91.144531 36.40625 91.300781 36.507812 C 91.335938 35.914062 91.40625 35.402344 91.382812 34.894531 C 91.363281 34.402344 91.316406 33.890625 90.929688 33.5 C 89.792969 32.351562 88.425781 32.316406 86.972656 32.664062 C 85.929688 32.914062 85.054688 33.410156 84.375 34.277344 C 83.285156 35.664062 83.015625 37.195312 83.753906 38.828125 C 84.40625 40.277344 85.496094 41.371094 86.640625 42.421875 C 87.21875 42.953125 87.84375 43.433594 88.425781 43.917969 C 87.386719 44.742188 86.328125 45.507812 85.464844 46.515625 C 84.953125 47.113281 84.507812 47.753906 84.316406 48.519531 C 84.167969 49.121094 84.371094 49.699219 85.117188 49.878906 C 85.957031 50.085938 86.742188 49.875 87.460938 49.523438 C 88.46875 49.039062 89.449219 48.46875 90.390625 47.859375 C 90.839844 47.570312 91.191406 47.121094 91.5625 46.71875 C 91.964844 46.277344 92.074219 45.71875 92.0625 45.152344 C 92.269531 45.152344 92.4375 45.152344 92.652344 45.152344 C 92.613281 45.703125 92.578125 46.226562 92.539062 46.75 C 92.484375 47.417969 92.429688 48.085938 92.375 48.75 C 92.347656 49.113281 92.261719 49.480469 92.304688 49.832031 C 92.421875 50.78125 93.21875 51.371094 94.277344 51.304688 C 94.324219 50.519531 94.367188 49.730469 94.417969 48.941406 C 94.441406 48.554688 94.46875 48.164062 94.5 47.777344 C 94.605469 46.46875 94.796875 45.160156 94.796875 43.851562 C 94.796875 42.941406 95.339844 42.351562 95.699219 41.511719 C 95.847656 41.785156 96.054688 41.988281 96.023438 42.140625 C 95.863281 43.007812 95.664062 43.867188 95.433594 44.714844 C 95.214844 45.519531 95.179688 46.300781 95.480469 47.082031 C 95.753906 47.796875 96.8125 48.3125 97.578125 48.003906 C 98.402344 47.671875 98.914062 47.027344 99.390625 46.347656 C 99.769531 45.808594 100.085938 45.222656 100.445312 44.636719 C 100.261719 45.808594 100.042969 46.957031 100.449219 48.113281 C 100.570312 48.457031 100.785156 48.691406 101.097656 48.621094 C 101.464844 48.542969 101.855469 48.371094 102.136719 48.125 C 103.0625 47.316406 103.589844 46.210938 104.183594 45.171875 C 104.304688 45.433594 104.410156 45.699219 104.546875 45.949219 C 105.117188 46.96875 105.871094 47.015625 106.636719 46.253906 C 107.359375 45.542969 107.78125 44.632812 108.128906 43.703125 C 108.472656 42.78125 108.742188 41.835938 109.023438 40.894531 C 109.207031 40.292969 109.015625 40.054688 108.394531 40.058594 C 107.890625 40.0625 107.128906 40.65625 106.941406 41.226562 C 106.777344 41.722656 106.65625 42.234375 106.5 42.738281 C 106.367188 43.171875 106.214844 43.605469 106.054688 44.074219 C 105.835938 43.316406 105.652344 42.59375 105.414062 41.890625 C 105.3125 41.59375 105.128906 41.292969 104.726562 41.285156 C 104.375 41.277344 104.078125 41.433594 103.921875 41.71875 C 103.410156 42.671875 102.941406 43.644531 102.421875 44.667969 C 102.421875 44.496094 102.402344 44.386719 102.425781 44.285156 C 102.710938 42.976562 103 41.667969 103.304688 40.359375 C 103.40625 39.917969 103.265625 39.480469 102.9375 39.421875 C 102.421875 39.328125 101.371094 39.59375 101.191406 40.332031 C 101.074219 40.832031 100.960938 41.332031 100.835938 41.882812 C 100.257812 41.164062 99.507812 40.824219 98.699219 40.640625 C 97.921875 40.464844 97.140625 40.160156 96.269531 40.511719 C 96.3125 40.367188 96.332031 40.253906 96.375 40.152344 C 96.835938 39.109375 97.347656 38.089844 97.753906 37.023438 C 98.257812 35.714844 98.785156 34.402344 98.59375 32.929688 C 98.46875 31.988281 97.695312 31.414062 96.777344 31.691406 C 95.847656 31.96875 95.214844 32.648438 94.933594 33.515625 C 94.503906 34.824219 94.230469 36.183594 93.847656 37.578125 M 72.621094 37.199219 C 72.558594 37.183594 72.496094 37.167969 72.433594 37.144531 C 71.75 36.902344 71.207031 37.171875 71.054688 37.894531 C 70.910156 38.59375 70.828125 39.304688 70.734375 40.015625 C 70.703125 40.242188 70.742188 40.46875 70.394531 40.472656 C 70.019531 40.472656 69.644531 40.507812 69.273438 40.554688 C 68.976562 40.589844 68.664062 40.617188 68.394531 40.738281 C 68.042969 40.898438 67.761719 41.667969 67.882812 41.972656 C 68.0625 42.425781 68.644531 42.675781 69.171875 42.5625 C 69.539062 42.484375 69.921875 42.457031 70.328125 42.402344 C 70.265625 42.976562 70.246094 43.484375 70.148438 43.976562 C 69.929688 45.0625 69.839844 46.144531 69.992188 47.246094 C 70.113281 48.148438 70.882812 48.824219 71.785156 48.71875 C 72.75 48.605469 73.566406 48.191406 74.125 47.347656 C 74.6875 48.390625 76.085938 48.382812 76.859375 47.664062 C 77.628906 46.949219 78.253906 46.125 78.726562 45.195312 C 79.125 44.402344 79.5 43.574219 79.460938 42.652344 C 79.453125 42.414062 79.394531 42.144531 79.261719 41.949219 C 78.832031 41.300781 78.140625 41.03125 77.433594 40.792969 C 77.042969 40.664062 76.652344 40.527344 76.257812 40.402344 C 75.964844 40.308594 75.664062 40.152344 75.371094 40.15625 C 74.488281 40.171875 73.609375 40.25 72.691406 40.304688 C 72.761719 39.792969 72.808594 39.308594 72.898438 38.832031 C 73.003906 38.269531 73.179688 37.707031 72.621094 37.199219 M 115.082031 35.851562 C 115.164062 35.492188 115.25 35.136719 115.324219 34.773438 C 115.5625 33.574219 115.796875 32.378906 116.039062 31.136719 C 115.945312 31.164062 115.859375 31.183594 115.78125 31.214844 C 115.398438 31.351562 115.027344 31.523438 114.636719 31.632812 C 113.847656 31.851562 113.738281 31.964844 113.609375 32.777344 C 113.457031 33.71875 113.28125 34.65625 113.121094 35.59375 C 113.007812 36.273438 112.894531 36.953125 112.796875 37.636719 C 112.648438 38.664062 112.53125 39.695312 112.378906 40.71875 C 112.230469 41.714844 112.042969 42.707031 111.898438 43.699219 C 111.746094 44.742188 111.699219 45.804688 111.457031 46.820312 C 111.308594 47.429688 111.3125 47.796875 111.921875 48.066406 C 112.238281 48.207031 112.539062 48.328125 112.855469 48.125 C 113.175781 47.917969 113.574219 47.796875 113.542969 47.257812 C 113.507812 46.679688 113.546875 46.09375 113.617188 45.519531 C 113.785156 44.105469 113.984375 42.699219 114.183594 41.289062 C 114.335938 40.226562 114.5 39.167969 114.675781 38.105469 C 114.796875 37.378906 114.945312 36.652344 115.082031 35.851562 Z M 115.082031 35.851562 "/>
<path style=" stroke:none;fill-rule:nonzero;fill:rgb(0%,60.784316%,29.803923%);fill-opacity:1;" d="M 2.984375 0.0820312 C 3.847656 0.328125 4.675781 0.5625 5.496094 0.820312 C 6.136719 1.023438 6.765625 1.257812 7.402344 1.464844 C 8.265625 1.746094 9.132812 2.011719 9.996094 2.289062 C 10.910156 2.585938 11.824219 2.890625 12.738281 3.1875 C 13.574219 3.460938 14.414062 3.734375 15.253906 4.003906 C 16.195312 4.308594 17.136719 4.605469 18.074219 4.910156 C 18.902344 5.175781 19.726562 5.453125 20.550781 5.722656 C 21.265625 5.953125 21.980469 6.175781 22.695312 6.410156 C 23.730469 6.75 24.765625 7.097656 25.804688 7.433594 C 26.691406 7.722656 27.585938 7.992188 28.476562 8.28125 C 29.351562 8.566406 30.214844 8.886719 31.097656 9.144531 C 32.382812 9.523438 33.144531 10.371094 33.46875 11.648438 C 33.488281 11.738281 33.484375 11.835938 33.484375 11.929688 C 33.484375 14.109375 33.484375 16.289062 33.445312 18.507812 C 32.726562 18.796875 32.046875 19.050781 31.363281 19.289062 C 31.148438 19.363281 30.925781 19.398438 30.71875 19.421875 C 30.765625 19.144531 30.800781 18.890625 30.832031 18.640625 C 30.683594 18.628906 30.515625 18.566406 30.382812 18.609375 C 29.871094 18.769531 29.371094 18.972656 28.859375 19.152344 C 27.617188 19.585938 26.378906 20.027344 25.128906 20.433594 C 24.78125 20.546875 24.382812 20.636719 24.03125 20.582031 C 23.1875 20.453125 22.347656 20.257812 21.519531 20.03125 C 20.300781 19.703125 19.097656 19.320312 17.882812 18.972656 C 16.425781 18.554688 14.964844 18.160156 13.507812 17.746094 C 12.292969 17.398438 11.082031 17.039062 9.867188 16.679688 C 8.53125 16.28125 7.199219 15.875 5.859375 15.480469 C 5.066406 15.246094 4.273438 15 3.472656 14.804688 C 2.789062 14.636719 2.609375 14.5 2.648438 14.007812 C 3.359375 13.9375 4.070312 13.871094 4.78125 13.800781 C 4.265625 13.511719 3.738281 13.289062 3.203125 13.078125 C 2.4375 12.777344 1.382812 11.625 1.558594 10.75 C 1.628906 10.40625 1.761719 10.074219 1.878906 9.738281 C 2.035156 9.277344 2.210938 8.820312 2.367188 8.359375 C 2.515625 7.925781 2.613281 7.472656 2.804688 7.058594 C 3 6.636719 3.011719 6.257812 2.6875 5.921875 C 2.425781 5.652344 2.226562 5.339844 2.214844 4.96875 C 2.199219 4.523438 1.929688 4.304688 1.597656 4.101562 C 1.488281 4.035156 1.328125 3.933594 1.316406 3.835938 C 1.273438 3.457031 1.230469 3.0625 1.289062 2.691406 C 1.355469 2.265625 1.53125 1.859375 1.65625 1.457031 C 1.480469 1.386719 1.347656 1.332031 1.253906 1.292969 C 1.390625 0.851562 1.511719 0.464844 1.632812 0.0820312 C 2.070312 0.0820312 2.507812 0.0820312 2.984375 0.0820312 Z M 2.984375 0.0820312 "/>
<path style=" stroke:none;fill-rule:nonzero;fill:rgb(14.509805%,43.137255%,55.686277%);fill-opacity:1;" d="M 30.703125 19.449219 C 30.925781 19.398438 31.148438 19.363281 31.363281 19.289062 C 32.046875 19.050781 32.726562 18.796875 33.441406 18.546875 C 33.476562 20.410156 33.484375 22.273438 33.488281 24.140625 C 33.488281 25.882812 33.507812 27.628906 33.480469 29.371094 C 33.457031 30.984375 32.855469 31.753906 31.433594 32.308594 C 30.738281 32.578125 30.222656 32.617188 29.539062 32.15625 C 28.550781 31.492188 27.386719 31.421875 26.191406 31.675781 C 25.222656 31.886719 24.289062 32.117188 23.46875 32.695312 C 22.574219 33.324219 21.886719 34.113281 21.460938 35.125 C 21.320312 35.460938 21.238281 35.832031 21.050781 36.140625 C 20.953125 36.300781 20.6875 36.375 20.488281 36.457031 C 19.84375 36.722656 19.195312 36.980469 18.546875 37.234375 C 17.734375 37.550781 16.917969 37.859375 16.101562 38.175781 C 14.734375 38.707031 13.367188 39.242188 12 39.777344 C 10.414062 40.394531 8.828125 40.996094 7.25 41.621094 C 5.910156 42.152344 4.582031 42.710938 3.246094 43.25 C 2.703125 43.46875 2.148438 43.671875 1.550781 43.898438 C 1.550781 43.367188 1.40625 42.796875 1.585938 42.359375 C 1.929688 41.515625 1.75 40.632812 1.972656 39.796875 C 2.015625 39.625 2.195312 39.488281 2.328125 39.3125 C 2.269531 39.292969 2.1875 39.25 2.105469 39.242188 C 1.621094 39.210938 1.136719 39.199219 0.652344 39.152344 C 0.515625 39.136719 0.269531 39.039062 0.269531 38.976562 C 0.269531 38.824219 0.347656 38.636719 0.457031 38.523438 C 0.660156 38.3125 1.070312 38.164062 1.09375 37.957031 C 1.117188 37.71875 0.816406 37.449219 0.652344 37.191406 C 0.480469 36.925781 0.308594 36.660156 0.109375 36.386719 C 0.0820312 36.078125 0.0820312 35.777344 0.109375 35.425781 C 0.28125 35.210938 0.40625 35.011719 0.574219 34.871094 C 1.039062 34.492188 1.523438 34.136719 2.003906 33.777344 C 2.539062 33.371094 2.753906 32.960938 2.515625 32.566406 C 2.320312 32.242188 2 31.988281 1.714844 31.722656 C 1.507812 31.535156 1.480469 31.292969 1.707031 31.117188 C 1.84375 31.007812 2.003906 30.929688 2.179688 30.820312 C 1.957031 30.632812 1.875 30.5625 1.753906 30.457031 C 1.984375 30.378906 2.171875 30.320312 2.351562 30.25 C 3.625 29.761719 4.890625 29.261719 6.164062 28.777344 C 7.382812 28.3125 8.609375 27.863281 9.832031 27.40625 C 10.957031 26.984375 12.085938 26.5625 13.207031 26.132812 C 14.714844 25.558594 16.21875 24.976562 17.726562 24.402344 C 19.078125 23.886719 20.433594 23.378906 21.789062 22.863281 C 23.304688 22.28125 24.816406 21.691406 26.332031 21.109375 C 27.789062 20.554688 29.246094 20.003906 30.703125 19.449219 Z M 30.703125 19.449219 "/>
<path style=" stroke:none;fill-rule:nonzero;fill:rgb(100%,100%,100%);fill-opacity:1;" d="M 30.71875 19.421875 C 29.246094 20.003906 27.789062 20.554688 26.332031 21.109375 C 24.816406 21.691406 23.304688 22.28125 21.789062 22.863281 C 20.433594 23.378906 19.078125 23.886719 17.726562 24.402344 C 16.21875 24.976562 14.714844 25.558594 13.207031 26.132812 C 12.085938 26.5625 10.957031 26.984375 9.832031 27.40625 C 8.609375 27.863281 7.382812 28.3125 6.164062 28.777344 C 4.890625 29.261719 3.625 29.761719 2.351562 30.25 C 2.171875 30.320312 1.984375 30.378906 1.753906 30.457031 C 1.875 30.5625 1.957031 30.632812 2.179688 30.820312 C 2.003906 30.929688 1.84375 31.007812 1.707031 31.117188 C 1.480469 31.292969 1.507812 31.535156 1.714844 31.722656 C 2 31.988281 2.320312 32.242188 2.515625 32.566406 C 2.753906 32.960938 2.539062 33.371094 2.003906 33.777344 C 1.523438 34.136719 1.039062 34.492188 0.574219 34.871094 C 0.40625 35.011719 0.28125 35.210938 0.109375 35.390625 C 0.0820312 23.625 0.0820312 11.855469 0.0820312 0.0820312 C 0.578125 0.0820312 1.066406 0.0820312 1.59375 0.0820312 C 1.511719 0.464844 1.390625 0.851562 1.253906 1.292969 C 1.347656 1.332031 1.480469 1.386719 1.65625 1.457031 C 1.53125 1.859375 1.355469 2.265625 1.289062 2.691406 C 1.230469 3.0625 1.273438 3.457031 1.316406 3.835938 C 1.328125 3.933594 1.488281 4.035156 1.597656 4.101562 C 1.929688 4.304688 2.199219 4.523438 2.214844 4.96875 C 2.226562 5.339844 2.425781 5.652344 2.6875 5.921875 C 3.011719 6.257812 3 6.636719 2.804688 7.058594 C 2.613281 7.472656 2.515625 7.925781 2.367188 8.359375 C 2.210938 8.820312 2.035156 9.277344 1.878906 9.738281 C 1.761719 10.074219 1.628906 10.40625 1.558594 10.75 C 1.382812 11.625 2.4375 12.777344 3.203125 13.078125 C 3.738281 13.289062 4.265625 13.511719 4.78125 13.800781 C 4.070312 13.871094 3.359375 13.9375 2.648438 14.007812 C 2.609375 14.5 2.789062 14.636719 3.472656 14.804688 C 4.273438 15 5.066406 15.246094 5.859375 15.480469 C 7.199219 15.875 8.53125 16.28125 9.867188 16.679688 C 11.082031 17.039062 12.292969 17.398438 13.507812 17.746094 C 14.964844 18.160156 16.425781 18.554688 17.882812 18.972656 C 19.097656 19.320312 20.300781 19.703125 21.519531 20.03125 C 22.347656 20.257812 23.1875 20.453125 24.03125 20.582031 C 24.382812 20.636719 24.78125 20.546875 25.128906 20.433594 C 26.378906 20.027344 27.617188 19.585938 28.859375 19.152344 C 29.371094 18.972656 29.871094 18.769531 30.382812 18.609375 C 30.515625 18.566406 30.683594 18.628906 30.832031 18.640625 C 30.800781 18.890625 30.765625 19.144531 30.71875 19.421875 Z M 30.71875 19.421875 "/>
<path style=" stroke:none;fill-rule:nonzero;fill:rgb(11.372549%,9.411765%,9.803922%);fill-opacity:1;" d="M 156.082031 40.839844 C 155.84375 41.429688 155.324219 41.449219 154.839844 41.527344 C 154.007812 41.667969 153.167969 41.789062 152.335938 41.941406 C 151.78125 42.039062 151.667969 42.203125 151.585938 42.757812 C 151.460938 43.609375 151.304688 44.457031 151.191406 45.308594 C 151.148438 45.617188 151.152344 45.9375 151.191406 46.246094 C 151.238281 46.664062 151.511719 46.796875 151.894531 46.597656 C 152.101562 46.488281 152.28125 46.316406 152.46875 46.167969 C 152.835938 45.878906 153.417969 45.863281 153.675781 46.101562 C 153.953125 46.363281 153.757812 46.851562 153.449219 47.210938 C 153.050781 47.679688 152.570312 48.070312 151.949219 48.242188 C 151.367188 48.410156 150.78125 48.492188 150.195312 48.269531 C 149.503906 48.003906 149.363281 47.402344 149.300781 46.75 C 149.1875 45.585938 149.351562 44.441406 149.542969 43.296875 C 149.59375 42.972656 149.597656 42.636719 149.621094 42.320312 C 148.964844 42.367188 148.332031 42.414062 147.691406 42.457031 C 147.09375 43.808594 146.109375 44.824219 144.898438 45.652344 C 144.855469 45.683594 144.824219 45.730469 144.75 45.808594 C 144.664062 45.859375 144.621094 45.875 144.578125 45.886719 C 144.582031 45.910156 144.589844 45.933594 144.597656 45.960938 C 144.671875 45.929688 144.742188 45.898438 144.816406 45.871094 C 145.542969 45.425781 146.285156 45.007812 146.988281 44.523438 C 147.441406 44.214844 147.832031 43.808594 148.246094 43.441406 C 148.507812 43.210938 148.804688 43.15625 149.085938 43.347656 C 149.347656 43.523438 149.332031 43.792969 149.242188 44.097656 C 149.007812 44.898438 148.382812 45.390625 147.8125 45.90625 C 147.285156 46.386719 146.691406 46.796875 146.109375 47.214844 C 145.554688 47.613281 144.910156 47.832031 144.246094 47.886719 C 143.921875 47.910156 143.574219 47.71875 143.246094 47.601562 C 143.125 47.558594 143.035156 47.445312 142.925781 47.371094 C 142.617188 47.160156 142.351562 47.019531 141.90625 47.144531 C 141.132812 47.363281 140.34375 46.722656 140.242188 45.902344 C 140.164062 45.292969 140.132812 44.675781 140.070312 44.066406 C 140.054688 43.910156 140.007812 43.757812 139.964844 43.558594 C 139.152344 45.015625 138.359375 46.445312 137.546875 47.90625 C 137.292969 47.90625 136.996094 47.90625 136.695312 47.90625 C 136.136719 47.90625 135.871094 47.597656 135.984375 47.027344 C 136.1875 45.996094 136.421875 44.96875 136.625 43.933594 C 136.75 43.304688 136.847656 42.671875 136.964844 42.011719 C 135.429688 42.3125 134.363281 43.058594 133.835938 44.578125 C 133.515625 45.5 133.203125 46.410156 133.03125 47.371094 C 133.003906 47.542969 132.789062 47.753906 132.617188 47.8125 C 132.285156 47.921875 131.914062 47.996094 131.570312 47.96875 C 131.097656 47.925781 130.949219 47.496094 131.117188 46.855469 C 131.183594 46.601562 131.234375 46.34375 131.316406 45.972656 C 130.6875 46.449219 130.160156 46.867188 129.617188 47.253906 C 128.84375 47.808594 127.96875 48.007812 127.027344 47.90625 C 127 47.902344 126.964844 47.902344 126.949219 47.886719 C 126.402344 47.296875 125.964844 47.664062 125.464844 48 C 124.675781 48.527344 123.804688 48.683594 122.890625 48.324219 C 122.375 48.121094 122.160156 47.648438 122.121094 47.171875 C 122.058594 46.359375 122.0625 45.535156 122.117188 44.722656 C 122.164062 44.050781 122.324219 43.386719 122.429688 42.71875 C 122.441406 42.640625 122.429688 42.558594 122.429688 42.425781 C 121.867188 42.492188 121.316406 42.558594 120.714844 42.632812 C 120.714844 43.472656 120.707031 44.335938 120.726562 45.203125 C 120.730469 45.3125 120.859375 45.453125 120.96875 45.527344 C 121.09375 45.613281 121.257812 45.648438 121.40625 45.699219 C 122.058594 45.917969 122.15625 46.347656 121.621094 46.800781 C 121.128906 47.21875 120.585938 47.449219 119.910156 47.183594 C 119.449219 47 119.207031 46.617188 119.105469 46.214844 C 118.945312 45.589844 118.917969 44.929688 118.835938 44.285156 C 118.816406 44.113281 118.792969 43.941406 118.683594 43.753906 C 117.945312 45.121094 117.203125 46.488281 116.464844 47.855469 C 116.378906 48.015625 115.683594 48.136719 115.363281 48.054688 C 114.855469 47.917969 114.644531 47.546875 114.757812 46.992188 C 114.949219 46.050781 115.136719 45.105469 115.324219 44.160156 C 115.574219 42.902344 115.8125 41.644531 116.066406 40.390625 C 116.152344 39.949219 116.738281 39.683594 117.199219 39.84375 C 117.429688 39.925781 117.679688 39.964844 117.902344 40.070312 C 117.984375 40.109375 118.0625 40.28125 118.050781 40.382812 C 118.007812 40.734375 117.921875 41.082031 117.859375 41.433594 C 117.847656 41.503906 117.859375 41.582031 117.859375 41.691406 C 118.480469 40.972656 119.160156 40.4375 120.152344 41.042969 C 120.691406 40.527344 121.402344 40.527344 122.074219 40.480469 C 122.824219 40.425781 122.855469 40.421875 122.925781 39.6875 C 122.984375 39.09375 123.089844 38.503906 123.164062 37.914062 C 123.269531 37.066406 124.496094 36.773438 125.058594 37.265625 C 125.179688 37.375 125.296875 37.597656 125.277344 37.75 C 125.183594 38.523438 125.042969 39.292969 124.917969 40.066406 C 124.914062 40.101562 124.894531 40.136719 124.863281 40.226562 C 125.234375 40.195312 125.574219 40.167969 125.917969 40.136719 C 126.660156 40.070312 127.402344 39.992188 128.148438 39.945312 C 128.253906 39.9375 128.40625 40.058594 128.472656 40.164062 C 128.699219 40.515625 128.996094 40.496094 129.363281 40.449219 C 129.75 40.398438 130.175781 40.386719 130.542969 40.496094 C 131.257812 40.699219 131.597656 41.433594 131.265625 42.1875 C 130.953125 42.898438 130.554688 43.601562 130.0625 44.199219 C 129.53125 44.847656 128.847656 45.367188 128.136719 46.03125 C 128.558594 45.820312 128.914062 45.691406 129.210938 45.484375 C 129.976562 44.941406 130.726562 44.371094 131.464844 43.789062 C 131.574219 43.703125 131.636719 43.515625 131.652344 43.363281 C 131.75 42.570312 131.820312 41.769531 131.90625 40.972656 C 131.929688 40.761719 131.960938 40.550781 132.003906 40.34375 C 132.101562 39.90625 132.625 39.488281 133.167969 39.746094 C 133.402344 39.859375 133.625 39.992188 133.867188 40.121094 C 133.867188 40.316406 133.867188 40.519531 133.867188 40.726562 C 133.867188 40.925781 133.867188 41.125 133.867188 41.332031 C 134.285156 41.136719 134.667969 40.890625 135.089844 40.769531 C 135.691406 40.597656 136.324219 40.519531 136.941406 40.378906 C 137.082031 40.34375 137.253906 40.25 137.328125 40.132812 C 137.597656 39.707031 138 39.578125 138.464844 39.785156 C 138.738281 39.90625 139.035156 39.976562 139.324219 40.074219 C 139.21875 40.585938 139.113281 41.082031 139.003906 41.609375 C 139.316406 41.34375 139.585938 41.082031 139.886719 40.867188 C 140.574219 40.382812 141.457031 40.691406 141.699219 41.503906 C 141.792969 41.816406 141.851562 42.152344 141.863281 42.476562 C 141.886719 43.226562 141.863281 43.976562 141.875 44.726562 C 141.878906 44.910156 141.953125 45.09375 142.027344 45.265625 C 142.4375 43.625 143.085938 42.140625 144.382812 41.027344 C 145.175781 40.347656 146.140625 40.089844 147.125 40.433594 C 147.539062 40.578125 147.835938 40.589844 148.234375 40.488281 C 148.667969 40.375 149.140625 40.386719 149.597656 40.394531 C 149.882812 40.398438 149.996094 40.257812 150.03125 40.03125 C 150.152344 39.285156 150.25 38.535156 150.367188 37.789062 C 150.429688 37.371094 150.675781 37.121094 151.085938 37 C 151.644531 36.839844 152.242188 36.988281 152.402344 37.378906 C 152.453125 37.496094 152.449219 37.648438 152.433594 37.78125 C 152.339844 38.523438 152.238281 39.261719 152.125 40.089844 C 152.714844 40.035156 153.253906 39.980469 153.792969 39.9375 C 154.367188 39.890625 154.945312 39.820312 155.519531 39.832031 C 155.691406 39.835938 155.855469 40.074219 156.054688 40.214844 C 156.082031 40.414062 156.082031 40.609375 156.082031 40.839844 M 126.71875 42.183594 C 126.753906 42.148438 126.789062 42.109375 126.824219 42.074219 C 126.125 42.101562 125.457031 42.226562 124.78125 42.308594 C 124.328125 42.367188 124.140625 42.5625 124.128906 43.042969 C 124.117188 43.527344 123.953125 44.003906 123.902344 44.488281 C 123.828125 45.25 123.785156 46.011719 123.742188 46.777344 C 123.734375 46.988281 123.84375 47.09375 124.09375 47.097656 C 124.496094 47.105469 124.648438 46.742188 124.9375 46.597656 C 125.199219 46.46875 125.1875 46.277344 125.21875 46.042969 C 125.28125 45.523438 125.304688 44.96875 125.503906 44.496094 C 125.832031 43.714844 126.28125 42.984375 126.71875 42.183594 M 143.460938 45.039062 C 143.597656 44.960938 143.738281 44.890625 143.871094 44.808594 C 144.789062 44.238281 145.644531 43.605469 146.027344 42.53125 C 146.082031 42.371094 146.050781 42.179688 146.058594 42.003906 C 145.871094 42.015625 145.675781 42.003906 145.496094 42.046875 C 145.378906 42.078125 145.273438 42.1875 145.175781 42.273438 C 144.335938 43.011719 143.785156 43.9375 143.460938 45.039062 Z M 143.460938 45.039062 "/>
<path style=" stroke:none;fill-rule:nonzero;fill:rgb(11.372549%,9.411765%,9.803922%);fill-opacity:1;" d="M 38.589844 56.082031 C 38.304688 55.921875 38.015625 55.800781 37.824219 55.59375 C 37.308594 55.027344 37.261719 54.289062 37.347656 53.601562 C 37.449219 52.769531 37.644531 51.9375 37.917969 51.148438 C 38.339844 49.945312 39.007812 48.867188 39.898438 47.878906 C 39.0625 47.933594 38.226562 48.082031 37.859375 47.066406 C 37.449219 47.316406 37.074219 47.589844 36.660156 47.78125 C 36.285156 47.953125 35.871094 48.109375 35.464844 48.136719 C 34.648438 48.191406 34.3125 47.820312 34.304688 46.992188 C 34.304688 46.929688 34.304688 46.867188 34.304688 46.804688 C 33.757812 47.210938 33.257812 47.652344 32.691406 47.980469 C 32.273438 48.222656 31.777344 48.386719 31.300781 48.457031 C 30.90625 48.511719 30.429688 48.183594 30.300781 47.695312 C 30.269531 47.574219 30.230469 47.453125 30.1875 47.3125 C 29.136719 48.289062 28.003906 49.0625 26.726562 49.636719 C 25.910156 50 25.101562 50.238281 24.199219 50.210938 C 23.597656 50.191406 22.953125 49.652344 23.128906 48.875 C 23.296875 48.128906 23.714844 47.496094 24.21875 46.9375 C 24.675781 46.421875 25.164062 45.933594 25.675781 45.476562 C 26.179688 45.023438 26.734375 44.625 27.265625 44.203125 C 26.851562 43.859375 26.425781 43.542969 26.039062 43.1875 C 25.339844 42.539062 24.640625 41.890625 23.984375 41.203125 C 23.230469 40.414062 22.632812 39.492188 22.328125 38.449219 C 21.929688 37.101562 22.253906 35.847656 23.089844 34.71875 C 23.539062 34.117188 24.066406 33.601562 24.753906 33.320312 C 25.855469 32.863281 27.007812 32.582031 28.207031 32.875 C 28.882812 33.039062 29.496094 33.390625 29.894531 33.984375 C 30.0625 34.234375 30.191406 34.558594 30.203125 34.855469 C 30.234375 35.492188 30.175781 36.132812 30.148438 36.886719 C 29.96875 36.722656 29.875 36.636719 29.78125 36.550781 C 29.414062 36.210938 29.046875 35.871094 28.683594 35.53125 C 28.03125 34.925781 27.257812 34.886719 26.445312 35.074219 C 26.078125 35.160156 25.714844 35.269531 25.355469 35.398438 C 24.285156 35.78125 23.898438 36.730469 24.363281 37.8125 C 24.730469 38.679688 25.308594 39.417969 25.988281 40.054688 C 27.078125 41.066406 28.207031 42.035156 29.304688 43.007812 C 30.089844 42.71875 30.824219 42.445312 31.558594 42.183594 C 31.765625 42.109375 31.996094 42.015625 32.203125 42.039062 C 32.632812 42.085938 32.746094 42.402344 32.640625 42.878906 C 34.148438 41.523438 35.632812 40.3125 37.847656 40.863281 C 37.363281 42.589844 36.464844 44.230469 36.316406 46.070312 C 36.355469 46.101562 36.398438 46.128906 36.4375 46.15625 C 36.855469 45.8125 37.292969 45.492188 37.679688 45.117188 C 37.800781 44.996094 37.792969 44.726562 37.820312 44.523438 C 37.933594 43.667969 38.035156 42.808594 38.140625 41.949219 C 38.195312 41.515625 38.238281 41.078125 38.3125 40.644531 C 38.359375 40.375 39.175781 40.109375 39.515625 40.253906 C 39.84375 40.390625 40.179688 40.527344 40.109375 41.007812 C 40.054688 41.378906 40.050781 41.757812 40.023438 42.136719 C 39.941406 43.203125 39.855469 44.273438 39.78125 45.34375 C 39.773438 45.433594 39.835938 45.527344 39.867188 45.621094 C 39.910156 45.636719 39.953125 45.65625 39.996094 45.671875 C 40.328125 45.21875 40.707031 44.792969 40.988281 44.308594 C 41.328125 43.726562 41.589844 43.09375 41.878906 42.480469 C 41.953125 42.316406 41.988281 42.128906 42.074219 41.972656 C 42.347656 41.492188 43.667969 41.621094 43.882812 42.113281 C 43.984375 42.34375 43.941406 42.671875 43.878906 42.933594 C 43.675781 43.761719 43.433594 44.582031 43.210938 45.402344 C 43.199219 45.4375 43.222656 45.480469 43.226562 45.484375 C 43.835938 45.332031 44.441406 45.175781 45.046875 45.027344 C 45.421875 44.9375 45.726562 45.109375 45.90625 45.488281 C 46.089844 45.859375 45.890625 46.105469 45.609375 46.265625 C 44.941406 46.640625 44.246094 46.980469 43.5625 47.335938 C 43.34375 47.449219 43.082031 47.527344 42.917969 47.699219 C 42.765625 47.851562 42.6875 48.101562 42.644531 48.324219 C 42.359375 49.777344 42.125 51.242188 41.800781 52.683594 C 41.632812 53.449219 41.355469 54.195312 41.039062 54.914062 C 40.796875 55.46875 40.371094 55.910156 39.703125 56.050781 C 39.339844 56.082031 38.984375 56.082031 38.589844 56.082031 M 32.433594 46.054688 C 33.191406 45.386719 33.867188 44.648438 34.335938 43.734375 C 33.828125 44.152344 33.355469 44.605469 32.929688 45.101562 C 32.691406 45.371094 32.53125 45.710938 32.292969 46.035156 C 32.289062 46.082031 32.285156 46.125 32.28125 46.167969 C 32.320312 46.140625 32.355469 46.117188 32.433594 46.054688 M 28.5 46.144531 C 28.460938 46.023438 28.421875 45.902344 28.367188 45.734375 C 27.265625 46.480469 26.238281 47.253906 25.4375 48.316406 C 26.113281 48.09375 26.769531 47.839844 27.359375 47.484375 C 27.851562 47.1875 28.347656 46.839844 28.5 46.144531 M 38.878906 53.824219 C 38.882812 54.285156 38.886719 54.289062 39.3125 54.433594 C 39.644531 53.035156 39.976562 51.644531 40.304688 50.253906 C 40.25 50.234375 40.195312 50.21875 40.140625 50.199219 C 39.828125 50.9375 39.492188 51.667969 39.210938 52.421875 C 39.050781 52.847656 38.984375 53.304688 38.878906 53.824219 M 31.277344 44.503906 C 31.496094 44.207031 31.710938 43.910156 31.925781 43.617188 C 31.90625 43.601562 31.886719 43.585938 31.867188 43.570312 C 31.429688 43.855469 30.992188 44.140625 30.539062 44.433594 C 30.636719 44.6875 30.730469 44.929688 30.824219 45.167969 C 30.964844 44.964844 31.101562 44.757812 31.277344 44.503906 Z M 31.277344 44.503906 "/>
<path style=" stroke:none;fill-rule:nonzero;fill:rgb(0%,60.784316%,29.803923%);fill-opacity:1;" d="M 100.789062 35.324219 C 100.425781 35.359375 100.058594 35.394531 99.628906 35.433594 C 99.667969 35.195312 99.679688 35.011719 99.730469 34.84375 C 100.015625 33.875 100.003906 32.902344 99.628906 31.976562 C 99.355469 31.300781 98.800781 30.835938 98.117188 30.578125 C 96.589844 30.007812 95.121094 31.027344 94.398438 32.003906 C 93.703125 32.945312 93.421875 34.046875 93.121094 35.140625 C 93.046875 35.40625 92.933594 35.421875 92.703125 35.367188 C 92.703125 35.226562 92.703125 35.09375 92.703125 34.957031 C 92.703125 28.242188 92.6875 21.523438 92.710938 14.808594 C 92.71875 12.984375 93.339844 11.363281 94.59375 9.992188 C 95.539062 8.957031 96.625 8.121094 97.882812 7.523438 C 98.730469 7.125 99.609375 6.78125 100.558594 6.707031 C 101.402344 6.636719 102.246094 6.546875 103.089844 6.546875 C 112.140625 6.535156 121.195312 6.539062 130.246094 6.539062 C 130.40625 6.539062 130.566406 6.539062 130.742188 6.539062 C 130.742188 16.167969 130.742188 25.765625 130.742188 35.378906 C 128.0625 35.378906 125.398438 35.378906 122.699219 35.378906 C 122.699219 28 122.699219 20.609375 122.699219 13.183594 C 122.546875 13.175781 122.433594 13.164062 122.316406 13.164062 C 115.945312 13.160156 109.574219 13.15625 103.207031 13.171875 C 102.460938 13.171875 101.6875 13.25 101.199219 13.949219 C 101.042969 14.179688 100.976562 14.472656 100.839844 14.792969 C 100.804688 14.933594 100.789062 15.015625 100.789062 15.09375 C 100.789062 21.839844 100.789062 28.582031 100.789062 35.324219 Z M 100.789062 35.324219 "/>
<path style=" stroke:none;fill-rule:nonzero;fill:rgb(0%,60.784316%,29.803923%);fill-opacity:1;" d="M 88.949219 13.171875 C 88.808594 13.195312 88.671875 13.242188 88.53125 13.242188 C 84.042969 13.246094 79.550781 13.242188 75.058594 13.242188 C 74.914062 13.242188 74.765625 13.242188 74.582031 13.242188 C 74.582031 20.628906 74.582031 27.988281 74.582031 35.375 C 71.902344 35.375 69.257812 35.375 66.574219 35.375 C 66.574219 28.011719 66.574219 20.648438 66.574219 13.253906 C 61.609375 13.253906 56.675781 13.253906 51.722656 13.253906 C 51.722656 11.003906 51.722656 8.792969 51.722656 6.542969 C 64.109375 6.542969 76.488281 6.542969 88.90625 6.585938 C 88.945312 8.808594 88.945312 10.988281 88.949219 13.171875 Z M 88.949219 13.171875 "/>
<path style=" stroke:none;fill-rule:nonzero;fill:rgb(0%,60.784316%,29.803923%);fill-opacity:1;" d="M 38.140625 18.230469 C 38.140625 14.324219 38.140625 10.457031 38.140625 6.566406 C 40.835938 6.566406 43.507812 6.566406 46.203125 6.566406 C 46.203125 16.160156 46.203125 25.753906 46.203125 35.375 C 43.535156 35.375 40.863281 35.375 38.140625 35.375 C 38.140625 29.675781 38.140625 23.972656 38.140625 18.230469 Z M 38.140625 18.230469 "/>
<path style=" stroke:none;fill-rule:nonzero;fill:rgb(11.372549%,9.411765%,9.803922%);fill-opacity:1;" d="M 93.871094 37.546875 C 94.230469 36.183594 94.503906 34.824219 94.933594 33.515625 C 95.214844 32.648438 95.847656 31.96875 96.777344 31.691406 C 97.695312 31.414062 98.46875 31.988281 98.59375 32.929688 C 98.785156 34.402344 98.257812 35.714844 97.753906 37.023438 C 97.347656 38.089844 96.835938 39.109375 96.375 40.152344 C 96.332031 40.253906 96.3125 40.367188 96.269531 40.511719 C 97.140625 40.160156 97.921875 40.464844 98.699219 40.640625 C 99.507812 40.824219 100.257812 41.164062 100.835938 41.882812 C 100.960938 41.332031 101.074219 40.832031 101.191406 40.332031 C 101.371094 39.59375 102.421875 39.328125 102.9375 39.421875 C 103.265625 39.480469 103.40625 39.917969 103.304688 40.359375 C 103 41.667969 102.710938 42.976562 102.425781 44.285156 C 102.402344 44.386719 102.421875 44.496094 102.421875 44.667969 C 102.941406 43.644531 103.410156 42.671875 103.921875 41.71875 C 104.078125 41.433594 104.375 41.277344 104.726562 41.285156 C 105.128906 41.292969 105.3125 41.59375 105.414062 41.890625 C 105.652344 42.59375 105.835938 43.316406 106.054688 44.074219 C 106.214844 43.605469 106.367188 43.171875 106.5 42.738281 C 106.65625 42.234375 106.777344 41.722656 106.941406 41.226562 C 107.128906 40.65625 107.890625 40.0625 108.394531 40.058594 C 109.015625 40.054688 109.207031 40.292969 109.023438 40.894531 C 108.742188 41.835938 108.472656 42.78125 108.128906 43.703125 C 107.78125 44.632812 107.359375 45.542969 106.636719 46.253906 C 105.871094 47.015625 105.117188 46.96875 104.546875 45.949219 C 104.410156 45.699219 104.304688 45.433594 104.183594 45.171875 C 103.589844 46.210938 103.0625 47.316406 102.136719 48.125 C 101.855469 48.371094 101.464844 48.542969 101.097656 48.621094 C 100.785156 48.691406 100.570312 48.457031 100.449219 48.113281 C 100.042969 46.957031 100.261719 45.808594 100.445312 44.636719 C 100.085938 45.222656 99.769531 45.808594 99.390625 46.347656 C 98.914062 47.027344 98.402344 47.671875 97.578125 48.003906 C 96.8125 48.3125 95.753906 47.796875 95.480469 47.082031 C 95.179688 46.300781 95.214844 45.519531 95.433594 44.714844 C 95.664062 43.867188 95.863281 43.007812 96.023438 42.140625 C 96.054688 41.988281 95.847656 41.785156 95.699219 41.511719 C 95.339844 42.351562 94.796875 42.941406 94.796875 43.851562 C 94.796875 45.160156 94.605469 46.46875 94.5 47.777344 C 94.46875 48.164062 94.441406 48.554688 94.417969 48.941406 C 94.367188 49.730469 94.324219 50.519531 94.277344 51.304688 C 93.21875 51.371094 92.421875 50.78125 92.304688 49.832031 C 92.261719 49.480469 92.347656 49.113281 92.375 48.75 C 92.429688 48.085938 92.484375 47.417969 92.539062 46.75 C 92.578125 46.226562 92.613281 45.703125 92.652344 45.152344 C 92.4375 45.152344 92.269531 45.152344 92.0625 45.152344 C 92.074219 45.71875 91.964844 46.277344 91.5625 46.71875 C 91.191406 47.121094 90.839844 47.570312 90.390625 47.859375 C 89.449219 48.46875 88.46875 49.039062 87.460938 49.523438 C 86.742188 49.875 85.957031 50.085938 85.117188 49.878906 C 84.371094 49.699219 84.167969 49.121094 84.316406 48.519531 C 84.507812 47.753906 84.953125 47.113281 85.464844 46.515625 C 86.328125 45.507812 87.386719 44.742188 88.425781 43.917969 C 87.84375 43.433594 87.21875 42.953125 86.640625 42.421875 C 85.496094 41.371094 84.40625 40.277344 83.753906 38.828125 C 83.015625 37.195312 83.285156 35.664062 84.375 34.277344 C 85.054688 33.410156 85.929688 32.914062 86.972656 32.664062 C 88.425781 32.316406 89.792969 32.351562 90.929688 33.5 C 91.316406 33.890625 91.363281 34.402344 91.382812 34.894531 C 91.40625 35.402344 91.335938 35.914062 91.300781 36.507812 C 91.144531 36.40625 91.015625 36.351562 90.921875 36.261719 C 90.582031 35.9375 90.269531 35.582031 89.917969 35.273438 C 89.234375 34.6875 88.429688 34.550781 87.574219 34.777344 C 87.109375 34.902344 86.617188 35.011719 86.214844 35.253906 C 85.144531 35.898438 85.082031 36.824219 85.75 37.96875 C 86.523438 39.300781 87.621094 40.320312 88.804688 41.265625 C 89.328125 41.6875 89.851562 42.113281 90.386719 42.519531 C 90.492188 42.601562 90.671875 42.683594 90.777344 42.648438 C 91.445312 42.421875 92.109375 42.171875 92.765625 41.90625 C 93.105469 41.769531 93.128906 41.425781 93.191406 41.121094 C 93.375 40.191406 93.554688 39.257812 93.734375 38.324219 C 93.78125 38.078125 93.8125 37.824219 93.871094 37.546875 M 95.820312 36.644531 C 96.046875 35.917969 96.269531 35.191406 96.492188 34.460938 C 96.4375 34.445312 96.378906 34.429688 96.320312 34.410156 C 96.121094 35.148438 95.917969 35.882812 95.660156 36.648438 C 95.621094 36.816406 95.585938 36.984375 95.546875 37.15625 C 95.566406 37.160156 95.585938 37.164062 95.605469 37.171875 C 95.660156 37.007812 95.714844 36.847656 95.820312 36.644531 M 98.171875 43.121094 C 97.992188 43.054688 97.8125 42.988281 97.582031 42.902344 C 97.242188 43.957031 96.871094 44.980469 96.859375 46.179688 C 97.046875 46.089844 97.1875 46.054688 97.285156 45.96875 C 97.910156 45.421875 98.34375 44.738281 98.574219 43.945312 C 98.753906 43.335938 98.765625 43.386719 98.171875 43.121094 M 86.695312 47.746094 C 86.632812 47.84375 86.574219 47.941406 86.488281 48.078125 C 87.570312 47.757812 88.511719 47.339844 89.269531 46.570312 C 89.597656 46.234375 89.699219 45.890625 89.523438 45.339844 C 88.558594 46.160156 87.648438 46.933594 86.695312 47.746094 M 96.140625 40.585938 C 96.160156 40.613281 96.183594 40.640625 96.207031 40.671875 C 96.203125 40.628906 96.195312 40.589844 96.140625 40.585938 Z M 96.140625 40.585938 "/>
<path style=" stroke:none;fill-rule:nonzero;fill:rgb(11.372549%,9.411765%,9.803922%);fill-opacity:1;" d="M 55.589844 37.585938 C 55.960938 36.882812 56.375 36.214844 57.011719 35.71875 C 57.621094 35.242188 58.859375 34.984375 59.300781 35.949219 C 59.4375 36.253906 59.523438 36.605469 59.53125 36.9375 C 59.558594 38.039062 59.59375 39.148438 59.527344 40.246094 C 59.457031 41.386719 59.261719 42.519531 59.140625 43.660156 C 59.085938 44.140625 59.082031 44.628906 59.050781 45.109375 C 59.03125 45.375 59.003906 45.636719 58.976562 45.925781 C 59.351562 45.652344 59.730469 45.40625 60.070312 45.113281 C 60.191406 45.007812 60.230469 44.789062 60.273438 44.617188 C 60.414062 44.042969 60.515625 43.457031 60.675781 42.886719 C 60.878906 42.164062 60.894531 42.171875 60.371094 41.613281 C 60.3125 41.550781 60.257812 41.480469 60.238281 41.457031 C 60.660156 41.140625 61.058594 40.789062 61.507812 40.535156 C 61.6875 40.429688 61.996094 40.503906 62.230469 40.554688 C 62.925781 40.699219 63.628906 40.820312 64.292969 41.054688 C 64.964844 41.289062 65.667969 41.636719 65.765625 42.433594 C 65.832031 42.964844 65.742188 43.554688 65.566406 44.0625 C 65.089844 45.445312 64.34375 46.679688 63.246094 47.667969 C 62.488281 48.347656 61.660156 48.476562 60.832031 47.894531 C 60.597656 47.730469 60.460938 47.429688 60.324219 47.25 C 59.851562 47.480469 59.390625 47.804688 58.886719 47.929688 C 57.761719 48.207031 56.882812 47.738281 56.9375 46.449219 C 57 45.042969 57.144531 43.640625 57.253906 42.238281 C 57.28125 41.847656 57.328125 41.460938 57.332031 41.074219 C 57.34375 40.234375 57.335938 39.398438 57.335938 38.644531 C 55.765625 41.753906 54.070312 44.921875 53.320312 48.480469 C 52.90625 48.480469 52.566406 48.539062 52.257812 48.460938 C 51.996094 48.394531 51.78125 48.164062 51.53125 48.027344 C 51.210938 47.84375 51.300781 47.609375 51.363281 47.316406 C 51.605469 46.167969 51.796875 45.007812 52.03125 43.859375 C 52.277344 42.660156 52.550781 41.464844 52.824219 40.269531 C 53.121094 38.949219 53.453125 37.632812 53.730469 36.304688 C 53.863281 35.65625 53.90625 34.988281 53.984375 34.328125 C 53.992188 34.28125 53.976562 34.234375 53.871094 34.132812 C 53.347656 34.804688 52.796875 35.460938 52.304688 36.160156 C 51.71875 36.996094 51.164062 37.859375 50.628906 38.730469 C 50.324219 39.230469 50.0625 39.757812 49.828125 40.292969 C 49.546875 40.9375 49.109375 41.375 48.433594 41.578125 C 48.078125 41.683594 47.738281 41.609375 47.511719 41.359375 C 47.308594 41.136719 47.367188 40.839844 47.527344 40.550781 C 48.144531 39.453125 48.683594 38.308594 49.347656 37.242188 C 50.300781 35.726562 51.285156 34.226562 52.589844 32.976562 C 53.15625 32.433594 53.746094 31.929688 54.515625 31.714844 C 55.519531 31.433594 56.113281 31.835938 56.183594 32.84375 C 56.265625 33.945312 56.027344 35.019531 55.785156 36.085938 C 55.683594 36.535156 55.621094 36.992188 55.511719 37.492188 C 55.476562 37.609375 55.476562 37.675781 55.46875 37.828125 C 55.535156 37.695312 55.5625 37.640625 55.589844 37.585938 M 63.460938 43.960938 C 63.59375 43.675781 63.476562 43.457031 63.230469 43.34375 C 62.980469 43.222656 62.703125 43.167969 62.445312 43.089844 C 62.324219 43.4375 62.183594 43.75 62.109375 44.078125 C 61.96875 44.707031 61.859375 45.34375 61.753906 45.980469 C 61.738281 46.066406 61.804688 46.191406 61.871094 46.253906 C 61.90625 46.285156 62.054688 46.238281 62.113281 46.183594 C 62.742188 45.578125 63.242188 44.890625 63.460938 43.960938 Z M 63.460938 43.960938 "/>
<path style=" stroke:none;fill-rule:nonzero;fill:rgb(11.372549%,9.411765%,9.803922%);fill-opacity:1;" d="M 72.652344 37.210938 C 73.179688 37.707031 73.003906 38.269531 72.898438 38.832031 C 72.808594 39.308594 72.761719 39.792969 72.691406 40.304688 C 73.609375 40.25 74.488281 40.171875 75.371094 40.15625 C 75.664062 40.152344 75.964844 40.308594 76.257812 40.402344 C 76.652344 40.527344 77.042969 40.664062 77.433594 40.792969 C 78.140625 41.03125 78.832031 41.300781 79.261719 41.949219 C 79.394531 42.144531 79.453125 42.414062 79.460938 42.652344 C 79.5 43.574219 79.125 44.402344 78.726562 45.195312 C 78.253906 46.125 77.628906 46.949219 76.859375 47.664062 C 76.085938 48.382812 74.6875 48.390625 74.125 47.347656 C 73.566406 48.191406 72.75 48.605469 71.785156 48.71875 C 70.882812 48.824219 70.113281 48.148438 69.992188 47.246094 C 69.839844 46.144531 69.929688 45.0625 70.148438 43.976562 C 70.246094 43.484375 70.265625 42.976562 70.328125 42.402344 C 69.921875 42.457031 69.539062 42.484375 69.171875 42.5625 C 68.644531 42.675781 68.0625 42.425781 67.882812 41.972656 C 67.761719 41.667969 68.042969 40.898438 68.394531 40.738281 C 68.664062 40.617188 68.976562 40.589844 69.273438 40.554688 C 69.644531 40.507812 70.019531 40.472656 70.394531 40.472656 C 70.742188 40.46875 70.703125 40.242188 70.734375 40.015625 C 70.828125 39.304688 70.910156 38.59375 71.054688 37.894531 C 71.207031 37.171875 71.75 36.902344 72.433594 37.144531 C 72.496094 37.167969 72.558594 37.183594 72.652344 37.210938 M 71.960938 47.050781 C 72.171875 46.972656 72.394531 46.921875 72.589844 46.8125 C 72.964844 46.601562 73.324219 46.359375 73.679688 46.136719 C 73.964844 44.816406 74.261719 43.445312 74.566406 42.027344 C 73.792969 41.828125 73.058594 42.101562 72.316406 42.203125 C 72.25 42.523438 72.171875 42.832031 72.121094 43.140625 C 71.988281 43.949219 71.828125 44.757812 71.746094 45.570312 C 71.699219 46.046875 71.546875 46.566406 71.960938 47.050781 M 76.117188 43.117188 C 75.691406 43.992188 75.546875 44.941406 75.394531 45.886719 C 75.378906 45.972656 75.441406 46.136719 75.5 46.15625 C 75.597656 46.183594 75.753906 46.15625 75.824219 46.089844 C 76.445312 45.503906 76.878906 44.785156 77.167969 43.984375 C 77.230469 43.816406 77.210938 43.476562 77.113281 43.417969 C 76.816406 43.242188 76.457031 43.167969 76.117188 43.117188 Z M 76.117188 43.117188 "/>
<path style=" stroke:none;fill-rule:nonzero;fill:rgb(11.372549%,9.411765%,9.803922%);fill-opacity:1;" d="M 115.082031 35.890625 C 114.945312 36.652344 114.796875 37.378906 114.675781 38.105469 C 114.5 39.167969 114.335938 40.226562 114.183594 41.289062 C 113.984375 42.699219 113.785156 44.105469 113.617188 45.519531 C 113.546875 46.09375 113.507812 46.679688 113.542969 47.257812 C 113.574219 47.796875 113.175781 47.917969 112.855469 48.125 C 112.539062 48.328125 112.238281 48.207031 111.921875 48.066406 C 111.3125 47.796875 111.308594 47.429688 111.457031 46.820312 C 111.699219 45.804688 111.746094 44.742188 111.898438 43.699219 C 112.042969 42.707031 112.230469 41.714844 112.378906 40.71875 C 112.53125 39.695312 112.648438 38.664062 112.796875 37.636719 C 112.894531 36.953125 113.007812 36.273438 113.121094 35.59375 C 113.28125 34.65625 113.457031 33.71875 113.609375 32.777344 C 113.738281 31.964844 113.847656 31.851562 114.636719 31.632812 C 115.027344 31.523438 115.398438 31.351562 115.78125 31.214844 C 115.859375 31.183594 115.945312 31.164062 116.039062 31.136719 C 115.796875 32.378906 115.5625 33.574219 115.324219 34.773438 C 115.25 35.136719 115.164062 35.492188 115.082031 35.890625 Z M 115.082031 35.890625 "/>
<path style=" stroke:none;fill-rule:nonzero;fill:rgb(0%,60.392159%,20.392157%);fill-opacity:1;" d="M 100.820312 35.308594 C 100.789062 28.582031 100.789062 21.839844 100.789062 15.09375 C 100.789062 15.015625 100.804688 14.933594 100.832031 14.828125 C 100.859375 14.894531 100.867188 14.992188 100.867188 15.085938 C 100.871094 21.726562 100.871094 28.363281 100.867188 35.003906 C 100.867188 35.097656 100.859375 35.195312 100.820312 35.308594 Z M 100.820312 35.308594 "/>
<path style=" stroke:none;fill-rule:nonzero;fill:rgb(0%,56.078434%,22.745098%);fill-opacity:1;" d="M 88.980469 13.152344 C 88.945312 10.988281 88.945312 8.808594 88.945312 6.589844 C 88.972656 6.601562 89.023438 6.652344 89.023438 6.703125 C 89.019531 8.847656 89.015625 10.988281 88.980469 13.152344 Z M 88.980469 13.152344 "/>
<path style=" stroke:none;fill-rule:nonzero;fill:rgb(100%,100%,100%);fill-opacity:1;" d="M 126.703125 42.207031 C 126.28125 42.984375 125.832031 43.714844 125.503906 44.496094 C 125.304688 44.96875 125.28125 45.523438 125.21875 46.042969 C 125.1875 46.277344 125.199219 46.46875 124.9375 46.597656 C 124.648438 46.742188 124.496094 47.105469 124.09375 47.097656 C 123.84375 47.09375 123.734375 46.988281 123.742188 46.777344 C 123.785156 46.011719 123.828125 45.25 123.902344 44.488281 C 123.953125 44.003906 124.117188 43.527344 124.128906 43.042969 C 124.140625 42.5625 124.328125 42.367188 124.78125 42.308594 C 125.457031 42.226562 126.125 42.101562 126.824219 42.074219 C 126.789062 42.109375 126.753906 42.148438 126.703125 42.207031 Z M 126.703125 42.207031 "/>
<path style=" stroke:none;fill-rule:nonzero;fill:rgb(100%,100%,100%);fill-opacity:1;" d="M 143.445312 45.011719 C 143.785156 43.9375 144.335938 43.011719 145.175781 42.273438 C 145.273438 42.1875 145.378906 42.078125 145.496094 42.046875 C 145.675781 42.003906 145.871094 42.015625 146.058594 42.003906 C 146.050781 42.179688 146.082031 42.371094 146.027344 42.53125 C 145.644531 43.605469 144.789062 44.238281 143.871094 44.808594 C 143.738281 44.890625 143.597656 44.960938 143.445312 45.011719 Z M 143.445312 45.011719 "/>
<path style=" stroke:none;fill-rule:nonzero;fill:rgb(100%,100%,100%);fill-opacity:1;" d="M 144.800781 45.855469 C 144.742188 45.898438 144.671875 45.929688 144.597656 45.960938 C 144.589844 45.933594 144.582031 45.910156 144.578125 45.886719 C 144.621094 45.875 144.664062 45.859375 144.730469 45.828125 C 144.761719 45.820312 144.773438 45.828125 144.800781 45.855469 Z M 144.800781 45.855469 "/>
<path style=" stroke:none;fill-rule:nonzero;fill:rgb(100%,100%,100%);fill-opacity:1;" d="M 28.480469 46.167969 C 28.347656 46.839844 27.851562 47.1875 27.359375 47.484375 C 26.769531 47.839844 26.113281 48.09375 25.4375 48.316406 C 26.238281 47.253906 27.265625 46.480469 28.367188 45.734375 C 28.421875 45.902344 28.460938 46.023438 28.480469 46.167969 Z M 28.480469 46.167969 "/>
<path style=" stroke:none;fill-rule:nonzero;fill:rgb(100%,100%,100%);fill-opacity:1;" d="M 38.878906 53.785156 C 38.984375 53.304688 39.050781 52.847656 39.210938 52.421875 C 39.492188 51.667969 39.828125 50.9375 40.140625 50.199219 C 40.195312 50.21875 40.25 50.234375 40.304688 50.253906 C 39.976562 51.644531 39.644531 53.035156 39.3125 54.433594 C 38.886719 54.289062 38.882812 54.285156 38.878906 53.785156 Z M 38.878906 53.785156 "/>
<path style=" stroke:none;fill-rule:nonzero;fill:rgb(100%,100%,100%);fill-opacity:1;" d="M 32.335938 46.019531 C 32.53125 45.710938 32.691406 45.371094 32.929688 45.101562 C 33.355469 44.605469 33.828125 44.152344 34.335938 43.734375 C 33.867188 44.648438 33.191406 45.386719 32.398438 46.054688 C 32.355469 46.042969 32.347656 46.03125 32.335938 46.019531 Z M 32.335938 46.019531 "/>
<path style=" stroke:none;fill-rule:nonzero;fill:rgb(100%,100%,100%);fill-opacity:1;" d="M 31.261719 44.527344 C 31.101562 44.757812 30.964844 44.964844 30.824219 45.167969 C 30.730469 44.929688 30.636719 44.6875 30.539062 44.433594 C 30.992188 44.140625 31.429688 43.855469 31.867188 43.570312 C 31.886719 43.585938 31.90625 43.601562 31.925781 43.617188 C 31.710938 43.910156 31.496094 44.207031 31.261719 44.527344 Z M 31.261719 44.527344 "/>
<path style=" stroke:none;fill-rule:nonzero;fill:rgb(100%,100%,100%);fill-opacity:1;" d="M 32.378906 46.070312 C 32.355469 46.117188 32.320312 46.140625 32.28125 46.167969 C 32.285156 46.125 32.289062 46.082031 32.3125 46.027344 C 32.347656 46.03125 32.355469 46.042969 32.378906 46.070312 Z M 32.378906 46.070312 "/>
<path style=" stroke:none;fill-rule:nonzero;fill:rgb(100%,100%,100%);fill-opacity:1;" d="M 98.199219 43.140625 C 98.765625 43.386719 98.753906 43.335938 98.574219 43.945312 C 98.34375 44.738281 97.910156 45.421875 97.285156 45.96875 C 97.1875 46.054688 97.046875 46.089844 96.859375 46.179688 C 96.871094 44.980469 97.242188 43.957031 97.582031 42.902344 C 97.8125 42.988281 97.992188 43.054688 98.199219 43.140625 Z M 98.199219 43.140625 "/>
<path style=" stroke:none;fill-rule:nonzero;fill:rgb(100%,100%,100%);fill-opacity:1;" d="M 86.714844 47.726562 C 87.648438 46.933594 88.558594 46.160156 89.523438 45.339844 C 89.699219 45.890625 89.597656 46.234375 89.269531 46.570312 C 88.511719 47.339844 87.570312 47.757812 86.488281 48.078125 C 86.574219 47.941406 86.632812 47.84375 86.714844 47.726562 Z M 86.714844 47.726562 "/>
<path style=" stroke:none;fill-rule:nonzero;fill:rgb(100%,100%,100%);fill-opacity:1;" d="M 95.71875 36.617188 C 95.917969 35.882812 96.121094 35.148438 96.320312 34.410156 C 96.378906 34.429688 96.4375 34.445312 96.492188 34.460938 C 96.269531 35.191406 96.046875 35.917969 95.785156 36.648438 C 95.738281 36.640625 95.726562 36.628906 95.71875 36.617188 Z M 95.71875 36.617188 "/>
<path style=" stroke:none;fill-rule:nonzero;fill:rgb(100%,100%,100%);fill-opacity:1;" d="M 95.757812 36.667969 C 95.714844 36.847656 95.660156 37.007812 95.605469 37.171875 C 95.585938 37.164062 95.566406 37.160156 95.546875 37.15625 C 95.585938 36.984375 95.621094 36.816406 95.6875 36.632812 C 95.726562 36.628906 95.738281 36.640625 95.757812 36.667969 Z M 95.757812 36.667969 "/>
<path style=" stroke:none;fill-rule:nonzero;fill:rgb(100%,100%,100%);fill-opacity:1;" d="M 96.167969 40.566406 C 96.195312 40.589844 96.203125 40.628906 96.207031 40.671875 C 96.183594 40.640625 96.160156 40.613281 96.167969 40.566406 Z M 96.167969 40.566406 "/>
<path style=" stroke:none;fill-rule:nonzero;fill:rgb(100%,100%,100%);fill-opacity:1;" d="M 63.460938 43.992188 C 63.242188 44.890625 62.742188 45.578125 62.113281 46.183594 C 62.054688 46.238281 61.90625 46.285156 61.871094 46.253906 C 61.804688 46.191406 61.738281 46.066406 61.753906 45.980469 C 61.859375 45.34375 61.96875 44.707031 62.109375 44.078125 C 62.183594 43.75 62.324219 43.4375 62.445312 43.089844 C 62.703125 43.167969 62.980469 43.222656 63.230469 43.34375 C 63.476562 43.457031 63.59375 43.675781 63.460938 43.992188 Z M 63.460938 43.992188 "/>
<path style=" stroke:none;fill-rule:nonzero;fill:rgb(100%,100%,100%);fill-opacity:1;" d="M 55.574219 37.566406 C 55.5625 37.640625 55.535156 37.695312 55.46875 37.828125 C 55.476562 37.675781 55.476562 37.609375 55.507812 37.527344 C 55.542969 37.527344 55.550781 37.539062 55.574219 37.566406 Z M 55.574219 37.566406 "/>
<path style=" stroke:none;fill-rule:nonzero;fill:rgb(100%,100%,100%);fill-opacity:1;" d="M 71.9375 47.027344 C 71.546875 46.566406 71.699219 46.046875 71.746094 45.570312 C 71.828125 44.757812 71.988281 43.949219 72.121094 43.140625 C 72.171875 42.832031 72.25 42.523438 72.316406 42.203125 C 73.058594 42.101562 73.792969 41.828125 74.566406 42.027344 C 74.261719 43.445312 73.964844 44.816406 73.679688 46.136719 C 73.324219 46.359375 72.964844 46.601562 72.589844 46.8125 C 72.394531 46.921875 72.171875 46.972656 71.9375 47.027344 Z M 71.9375 47.027344 "/>
<path style=" stroke:none;fill-rule:nonzero;fill:rgb(100%,100%,100%);fill-opacity:1;" d="M 76.121094 43.085938 C 76.457031 43.167969 76.816406 43.242188 77.113281 43.417969 C 77.210938 43.476562 77.230469 43.816406 77.167969 43.984375 C 76.878906 44.785156 76.445312 45.503906 75.824219 46.089844 C 75.753906 46.15625 75.597656 46.183594 75.5 46.15625 C 75.441406 46.136719 75.378906 45.972656 75.394531 45.886719 C 75.546875 44.941406 75.691406 43.992188 76.121094 43.085938 Z M 76.121094 43.085938 "/>
</g>
</svg>
