<svg id="exierKoBlYD1" xmlns="http://www.w3.org/2000/svg" xmlns:xlink="http://www.w3.org/1999/xlink" viewBox="0 0 1910 685" shape-rendering="geometricPrecision" text-rendering="geometricPrecision" project-id="ae18a9c5366745baa1ae9bf2daea9af4" export-id="51c9f43421ab4e45ae1c4433bac9135f" cached="false"><g transform="translate(0 0.000001)"><path d="M1409.000366,439.000732c-1.669189,9.336548-3.48706,18.205536-4.963379,27.131043-2.142456,12.953888-4.159179,25.931427-6.009521,38.930206-2.452149,17.228363-4.86499,34.466217-6.939453,51.742645-.843384,7.024781-1.333252,14.195801-.919556,21.237671.389648,6.628968-4.50354,8.076844-8.434082,10.616028-3.874512,2.503052-7.51416,1.026367-11.426025-.708069-7.452027-3.304382-7.502808-7.770874-5.693116-15.256164c3.003418-12.422425,3.561158-25.422058,5.428101-38.137634c1.787964-12.178223,4.074707-24.283082,5.87854-36.45926c1.858643-12.547119,3.319458-25.152709,5.106812-37.711029c1.188354-8.347747,2.588378-16.666839,3.993774-24.981811c1.942261-11.491638,4.079712-22.95105,5.944824-34.454804c1.616089-9.967834,2.927368-11.351348,12.610474-14.031402c4.77185-1.320709,9.332519-3.399841,13.999389-5.106659.974366-.356384,1.995606-.584808,3.166138-.921265-2.981689,15.15326-5.837402,29.815735-8.76709,44.46344-.884765,4.42276-1.975586,8.804322-2.97583,13.647064Z" fill="#1d1819"/><path d="M1911,499.555847c-2.903931,7.206787-9.269165,7.441345-15.187622,8.429688-10.214844,1.705871-20.46814,3.192047-30.658569,5.029174-6.788941,1.223816-8.204224,3.221619-9.188843,9.992066-1.515869,10.422241-3.434693,20.787292-4.857422,31.221008-.51294,3.762146-.454956,7.696594-.000244,11.473206.615356,5.110168,3.940918,6.734985,8.625244,4.2807c2.552612-1.337402,4.724487-3.418884,7.02063-5.224975c4.512451-3.549439,11.626098-3.770569,14.7854-.822083c3.418823,3.190857,1.00586,9.144104-2.760376,13.554993-4.897461,5.735901-10.771972,10.510986-18.35498,12.63916-7.156861,2.008545-14.329834,3.015686-21.47461.292481-8.496704-3.238465-10.212036-10.594666-10.973266-18.555603-1.363526-14.258545.638428-28.246766,2.953125-42.244019.658203-3.980896.680908-8.066955.984131-11.963562-8.030274.578125-15.816651,1.138672-23.620118,1.700501-7.320678,16.494262-19.408081,28.95642-34.203369,39.062133-.534423.364991-.91748.951783-1.85083,1.903138-1.022094.640014-1.564331.812133-2.106567.984191.090088.290711.180176.58136.270386.87201.890503-.366516,1.781128-.733094,2.67163-1.099732c8.887696-5.441223,18.005494-10.54779,26.580689-16.443664c5.54541-3.812866,10.328979-8.744202,15.391968-13.244202c3.201172-2.845032,6.851562-3.503052,10.286499-1.173218c3.214843,2.180359,3.043701,5.455567,1.940674,9.193177-2.897095,9.815063-10.528443,15.813232-17.520386,22.137085-6.477295,5.858398-13.745728,10.870361-20.852417,15.996643-6.777832,4.889282-14.679688,7.534973-22.827759,8.188598-3.970215.318543-8.21521-2.05188-12.23584-3.485473-1.459595-.520386-2.595215-1.905335-3.935669-2.811463-3.764648-2.545105-7.024536-4.29248-12.440429-2.764587-9.482422,2.675354-19.161988-5.14093-20.411133-15.213074-.924073-7.452454-1.338013-14.967102-2.081543-22.443909-.188843-1.900451-.76648-3.762268-1.28833-6.219604-9.941162,17.861999-19.658203,35.321167-29.610718,53.20343-3.092651,0-6.748657.005127-10.404663-.001099-6.86853-.011596-10.094605-3.778869-8.719849-10.737609c2.496582-12.637757,5.330322-25.208863,7.848389-37.842652c1.532226-7.687012,2.736816-15.439392,4.150024-23.513916-18.77893,3.676819-31.841797,12.799011-38.31311,31.396973-3.921387,11.269409-7.761597,22.381164-9.832153,34.148987-.369141,2.097473-2.969971,4.705139-5.089478,5.398559-4.067261,1.330567-8.595581,2.250305-12.809326,1.891419-5.802002-.494019-7.588745-5.741516-5.550415-13.61316.804077-3.104675,1.411987-6.260131,2.41394-10.761108-7.677612,5.807495-14.118164,10.899109-20.787475,15.671204-9.485596,6.787353-20.170899,9.205383-31.723755,7.949035-.325073-.0354-.765747-.019226-.947632-.216247-6.680176-7.233948-12.023926-2.741516-18.170898,1.368652-9.637452,6.44397-20.338868,8.372131-31.53064,3.951843-6.288208-2.483581-8.919067-8.225463-9.383179-14.058776-.790527-9.936829-.727661-20.01648-.05896-29.971314.551636-8.212952,2.513916-16.329651,3.806275-24.496155.152221-.962585.020507-1.970154.020507-3.60968-6.912841.835571-13.619262,1.64624-20.985473,2.536621c0,10.261597-.109375,20.84607.133545,31.422486.031616,1.373474,1.637573,3.05426,2.949951,3.965148c1.533325,1.064332,3.527832,1.489808,5.351562,2.106202c8.004517,2.705505,9.187012,7.94934,2.653687,13.481018-6.038574,5.112854-12.704712,7.91748-20.951538,4.670837-5.67334-2.23352-8.623535-6.902954-9.88147-11.818054-1.958008-7.649109-2.25354-15.723389-3.258545-23.616882-.269043-2.114014-.555176-4.225953-1.888183-6.479004-9.056397,16.720947-18.107666,33.444702-27.175904,50.15924-1.05664,1.94751-9.575927,3.443299-13.460815,2.41803-6.25354-1.650451-8.812134-6.197937-7.432007-12.964538c2.355713-11.549866,4.666016-23.109131,6.948853-34.673645c3.032959-15.364014,5.966796-30.747773,9.057983-46.099945c1.082764-5.3779,8.261475-8.666199,13.880615-6.688996c2.852417,1.003662,5.913452,1.503418,8.622559,2.778565c1.020996.48059,1.970581,2.586822,1.821167,3.814331-.525025,4.31665-1.569824,8.568451-2.34961,12.857238-.158935.874329-.022827,1.802277-.022827,3.1633c7.617554-8.806488,15.963867-15.362335,28.111573-7.942291c6.580322-6.312317,15.270751-6.298737,23.504882-6.89856c9.180542-.668793,9.582642-.708343,10.443604-9.673858.697754-7.264649,2.021362-14.466919,2.921265-21.714997c1.285034-10.349426,16.301879-13.951843,23.170166-7.920379c1.516113,1.331512,2.909423,4.040344,2.682373,5.911376-1.151246,9.483643-2.851929,18.900696-4.375733,28.338593-.073608.456055-.297973.887787-.675537,1.972565c4.539063-.38089,8.712891-.709076,12.882568-1.085541c9.109009-.822601,18.208374-1.790863,27.332642-2.368774c1.284302-.08136,3.144775,1.4039,3.950806,2.666778c2.77185,4.342957,6.41394,4.104309,10.924316,3.516754c4.735474-.616913,9.922485-.754242,14.436157.548188c8.748169,2.524353,12.908081,11.485626,8.858887,20.683135-3.839355,8.721192-8.712524,17.323792-14.742432,24.652833-6.503173,7.90448-14.876342,14.270385-23.589599,22.383605c5.177002-2.586364,9.519775-4.130859,13.146972-6.689697c9.401978-6.63269,18.560669-13.620239,27.622803-20.713684c1.337647-1.047119,2.094116-3.382934,2.314575-5.219116c1.168579-9.729614,2.053101-19.492981,3.098755-29.237915.277344-2.584625.636719-5.176819,1.203369-7.710724c1.190552-5.323334,7.589844-10.4758,14.249268-7.303528c2.857056,1.361054,5.588745,2.985657,8.529175,4.572388c0,2.408508,0,4.902191,0,7.395874c0,2.442413,0,4.884796,0,7.451568c5.152466-2.434051,9.841308-5.407836,14.961792-6.887512c7.40271-2.139129,15.14563-3.076477,22.679931-4.80365c1.747193-.400604,3.827637-1.547546,4.740967-2.992004c3.297241-5.214508,8.240845-6.772156,13.939575-4.271362c3.349488,1.469818,6.947022,2.374237,10.493775,3.553192-1.303223,6.25589-2.564942,12.311981-3.915039,18.792419c3.829712-3.251373,7.107422-6.481476,10.819214-9.095062c8.431152-5.936584,19.198852-2.167358,22.204467,7.800659c1.152466,3.822479,1.859253,7.900879,1.984009,11.887207.286377,9.157471-.006836,18.331787.159912,27.495178.041138,2.255738.942871,4.495789,1.837036,6.599793c5.051392-20.047119,12.981812-38.197266,28.834473-51.805786c9.729736-8.352417,21.545899-11.5065,33.595215-7.295075c5.088745,1.778565,8.6875,1.92685,13.60376.656281c5.306884-1.371491,11.094848-1.214844,16.662719-1.121918c3.502076.058441,4.881836-1.697998,5.327271-4.449493c1.477539-9.125672,2.690308-18.293885,4.086182-27.433319.78186-5.118592,3.779907-8.175324,8.804565-9.623047c6.873291-1.9805,14.180054-.157837,16.130127,4.596466.601562,1.466583.582397,3.334198.379639,4.959839-1.128418,9.048431-2.400513,18.078888-3.772705,28.217987c7.203247-.661743,13.803466-1.324707,20.414062-1.859955c7.041992-.570129,14.100952-1.411438,21.136597-1.281036c2.091186.038726,4.128906,2.955261,6.541015,4.655914C1911,494.370575,1911,496.741119,1911,499.555847m-359.490601,16.442505c.419556-.450745.83899-.901428,1.258545-1.352173-8.552978.328858-16.733886,1.860474-24.976684,2.901489-5.559204.702271-7.849976,3.077759-7.994019,8.951172-.145019,5.919983-2.179077,11.767701-2.779297,17.708374-.939087,9.295838-1.466064,18.638184-1.949096,27.972107-.133179,2.573365,1.244262,3.879029,4.279907,3.929505c4.934448.08197,6.80896-4.330262,10.348633-6.101868c3.192993-1.598145,3.058593-3.93689,3.409057-6.792236.782959-6.38208,1.075806-13.139466,3.503296-18.93335c4.007324-9.564209,9.543823-18.48761,14.899658-28.28302m204.979004,34.923523c1.668579-.937866,3.375855-1.813354,4.99939-2.823669c11.230469-6.989258,21.729736-14.730103,26.399536-27.870057.692383-1.948669.286865-4.287597.389282-6.445983-2.29956.150878-4.6781-.004883-6.870727.560485-1.45874.376099-2.744141,1.677674-3.949585,2.743225-10.243286,9.055298-16.998779,20.374573-20.967896,33.835999Z" fill="#1d1819"/></g><path d="M36.532394,1C47.102222,4.001697,57.24099,6.886949,67.29493,10.04248c7.834579,2.458968,15.536209,5.33847,23.346282,7.879355c10.558098,3.434912,21.177422,6.681238,31.744744,10.088291c11.201385,3.611483,22.369171,7.327055,33.55806,10.977457c10.267684,3.349865,20.537628,6.69299,30.818069,10.00346c11.509613,3.706284,23.041702,7.342953,34.546173,11.065056c10.116531,3.27306,20.200958,6.645248,30.313492,9.930809c8.734787,2.837936,17.501327,5.578476,26.232071,8.428749c12.706146,4.148109,25.375854,8.408447,38.092895,12.52253c10.874665,3.518028,21.814698,6.834121,32.687928,10.356353c10.714843,3.470925,21.292388,7.393845,32.091552,10.569542c15.737549,4.6279,25.086457,14.994294,29.032166,30.619561.278869,1.104385.23291,2.306579.232849,3.463287-.001129,26.656113-.016846,53.312225-.48996,80.464722-8.807525,3.528473-17.13089,6.629669-25.516693,9.551666-2.597504.90506-5.364715,1.32312-7.893921,1.614075.578949-3.417084.997589-6.484086,1.41626-9.551087-1.845428-.171921-3.876953-.929153-5.503387-.412124-6.284119,1.997665-12.415955,4.467956-18.646607,6.641586-15.211212,5.306564-30.38916,10.720367-45.707764,15.69957-4.256286,1.383453-9.128326,2.49382-13.420288,1.823654-10.353119-1.616562-20.628326-3.996582-30.755462-6.733063-14.92566-4.033096-29.668061-8.738968-44.538376-12.983582-17.819275-5.086349-35.71196-9.915374-53.533508-14.993866-14.88762-4.242431-29.729783-8.645874-44.571572-13.047103-16.369469-4.854264-32.70272-9.83078-49.076675-14.669709-9.719414-2.872329-19.416657-5.869095-29.254372-8.276657-8.361809-2.046356-10.534422-3.713821-10.058365-9.752289c8.693745-.83226,17.388085-1.671737,26.082428-2.511215-6.293949-3.52655-12.765133-6.238861-19.29026-8.814483-9.375589-3.70076-22.301705-17.812775-20.154335-28.488282.849987-4.225647,2.509914-8.298027,3.921694-12.398658c1.939766-5.634217,4.052707-11.208939,5.982437-16.846459c1.814596-5.301178,3.004492-10.876381,5.357553-15.916283c2.400841-5.142227,2.51067-9.779815-1.453205-13.899765-3.192148-3.317833-5.636432-7.115325-5.774568-11.668922-.165898-5.46875-3.476515-8.120968-7.532015-10.599018-1.360842-.831524-3.31877-2.058033-3.45529-3.277378-.519304-4.638237-1.067-9.451027-.353545-14.002556.810654-5.17161,2.960452-10.133308,4.490039-15.063519-2.129784-.870136-3.784264-1.546087-4.911291-2.00654C17.046703,10.418902,18.523352,5.709451,20,1c5.354929,0,10.70986,0,16.532394,0Z" fill="#009b4c"/><path d="M375.930328,237.92749c2.689515-.641052,5.456726-1.059112,8.05423-1.964172c8.385803-2.921997,16.709168-6.023193,25.441803-9.099854.448029,22.779282.5336,45.603089.567047,68.426972.031281,21.328644.269501,42.661529-.069397,63.984802-.313385,19.716187-7.665558,29.153107-25.050964,35.904846-8.528259,3.311981-14.862366,3.785614-23.193054-1.817718-12.131562-8.159851-26.372589-9.020996-41.023285-5.877045-11.833283,2.539337-23.281555,5.358856-33.332886,12.436676-10.912903,7.68457-19.360504,17.365601-24.566528,29.718628-1.74292,4.135681-2.731232,8.683289-5.032868,12.45105-1.196533,1.958679-4.420196,2.829468-6.872253,3.843048-7.890488,3.261719-15.829071,6.409943-23.784561,9.511017-9.950424,3.878723-19.948822,7.634247-29.903534,11.502075-16.760636,6.512268-33.495926,13.089722-50.255249,19.605347-19.384049,7.536071-38.82547,14.926483-58.161614,22.58316-16.385238,6.48819-32.638859,13.308075-48.985702,19.894318-6.68916,2.695129-13.470345,5.161804-20.754412,7.940185c0-6.482055-1.809992-13.481872.386635-18.838806c4.231525-10.319397,2.018389-21.121063,4.736271-31.321655.560383-2.103211,2.737808-3.775574,4.395941-5.941773-.743018-.233612-1.734524-.761352-2.757389-.831451-5.918068-.405518-11.857183-.560639-17.757944-1.126343-1.708613-.163788-4.692477-1.394226-4.695715-2.146026-.008065-1.872437.937879-4.161438,2.270555-5.538025c2.48766-2.569703,7.527865-4.395935,7.798938-6.928345.309781-2.894043-3.404435-6.231079-5.400326-9.356323-2.079727-3.256531-4.195489-6.490113-6.639788-9.837891C1,441.307098,1,437.614166,1.345602,433.35437c2.110968-2.665069,3.604637-5.097137,5.693902-6.797302c5.696123-4.635407,11.63413-8.974518,17.494399-13.407074c6.560341-4.962067,9.182276-9.97464,6.258429-14.797577-2.404484-3.966248-6.308092-7.090973-9.810129-10.301971-2.527903-2.317841-2.856272-5.248047-.078713-7.42215c1.687431-1.320831,3.643059-2.298981,5.798588-3.628693-2.730595-2.305389-3.763294-3.177276-5.244618-4.427917c2.856162-.986237,5.130221-1.695832,7.348734-2.549683c15.562428-5.989837,31.088867-12.073913,46.675022-18.001129c14.928605-5.677124,29.919167-11.191193,44.87555-16.795471c13.794021-5.168762,27.595825-10.317413,41.363418-15.555756c18.450928-7.020263,36.86229-14.144409,55.30922-21.175232c16.565857-6.313873,33.173446-12.518463,49.732284-18.850555c18.557953-7.096588,37.066406-14.322724,55.62497-21.417694c17.828857-6.81601,35.694305-13.536301,53.54367-20.298676Z" fill="#256e8e"/><path d="M472.464661,686c-3.460938-1.960999-7-3.423218-9.348816-5.979187-6.339295-6.89856-6.911347-15.925598-5.85846-24.37616c1.264679-10.150451,3.635163-20.349609,7.015869-30.006347c5.145722-14.698487,13.34375-27.882019,24.246521-39.99762-10.242736.68396-20.479187,2.518127-25.00708-9.928406-5.016632,3.047058-9.602081,6.416199-14.667785,8.736756-4.605927,2.109741-9.669892,4.01416-14.645325,4.355163-9.974243.683716-14.102509-3.866699-14.198914-13.97644-.007385-.771851-.000976-1.543823-.000976-2.298828-6.672699,4.95697-12.801331,10.362854-19.735138,14.378357-5.126373,2.968811-11.178925,4.984741-17.047669,5.823242-4.808807.68695-10.644104-3.360901-12.218994-9.299134-.39685-1.496459-.871399-2.97229-1.378387-4.688293-12.860199,11.951233-26.733185,21.399902-42.406861,28.40509-9.964477,4.453431-19.871185,7.384949-30.94168,7.022828-7.352784-.240662-15.250733-6.818726-13.112244-16.303772c2.057526-9.125672,7.205414-16.869385,13.352508-23.739869c5.607697-6.267639,11.593995-12.25177,17.866303-17.85382c6.17865-5.518433,12.925873-10.40033,19.466644-15.595643-5.082885-4.169677-10.283111-8.035949-15.017639-12.406799-8.56488-7.907043-17.125366-15.853149-25.182861-24.266479-9.238434-9.646454-16.527222-20.934174-20.28125-33.681763-4.850189-16.470032-.916291-31.810059,9.352569-45.618774c5.474701-7.361939,11.927887-13.661957,20.347321-17.134186c13.508545-5.570984,27.622253-9.039337,42.279907-5.455658c8.308136,2.03128,15.780182,6.308533,20.675903,13.61026c2.048981,3.055908,3.629395,7.009735,3.789948,10.627807.346252,7.802674-.364166,15.652253-.69104,24.85785-2.211182-2.022767-3.363617-3.066346-4.504425-4.122437-4.482269-4.149261-8.965241-8.297729-13.439881-12.4552-7.988861-7.422547-17.450439-7.904602-27.376281-5.600159-4.510254,1.047119-8.970978,2.409424-13.335755,3.961823-13.124725,4.667877-17.847107,16.274627-12.185608,29.548401c4.523896,10.606658,11.571656,19.643005,19.930268,27.403656c13.330963,12.377197,27.158569,24.219512,40.586151,36.119659c9.616943-3.526733,18.584137-6.887085,27.610779-10.079285c2.54068-.898498,5.343994-2.067383,7.872741-1.775879c5.261689.606629,6.672913,4.450745,5.346924,10.286499c18.4552-16.585846,36.639466-31.366973,63.747925-24.666168-5.921692,21.117645-16.909821,41.205658-18.720764,63.726654.493133.345093.986267.690125,1.479401,1.035218c5.112731-4.187073,10.487243-8.107178,15.186737-12.715638c1.508392-1.479126,1.41632-4.752014,1.743988-7.2453c1.37799-10.486145,2.634002-20.988342,3.94223-31.483643.66452-5.331237,1.17572-10.689392,2.080688-15.979919.560364-3.275787,10.557434-6.547882,14.746003-4.786438c4.009857,1.686279,8.137573,3.370575,7.255889,9.250671-.680816,4.540436-.723816,9.175477-1.073639,13.766724-.996612,13.081238-2.037658,26.159241-2.949798,39.246277-.076843,1.102722.679718,2.263428,1.049072,3.397217.523804.206115,1.047608.412231,1.571381.618347c4.097229-5.526245,8.718719-10.747559,12.157074-16.657166c4.162018-7.153564,7.358581-14.87268,10.894043-22.384216.942993-2.00354,1.346985-4.285278,2.430969-6.193542c3.346008-5.890473,19.490417-4.294739,22.134216,1.727294c1.237061,2.817688.707093,6.826722-.075988,10.038941-2.46814,10.124878-5.442872,20.126099-8.182068,30.185913-.11261.413635.172363.935547.187561,1.00708c7.489563-1.880981,14.896301-3.765442,22.316345-5.595703c4.578613-1.129395,8.318237,1.01593,10.533508,5.606201c2.206848,4.572632-.188843,7.595703-3.63208,9.528565-8.217041,4.612609-16.703125,8.745483-25.073059,13.086486-2.705749,1.403321-5.916443,2.343018-7.925476,4.429444-1.825073,1.895386-2.807739,4.966797-3.341797,7.681152-3.495605,17.765259-6.327087,35.673462-10.293243,53.328858-2.094971,9.326049-5.475617,18.484497-9.330689,27.254943-2.994415,6.812561-8.197235,12.207215-16.363434,13.932618C481.643097,686,477.286194,686,472.464661,686M397.110474,563.324646c9.289306-8.169861,17.540588-17.196594,23.271545-28.363037-6.212006,5.13446-11.984497,10.680359-17.2052,16.704529-2.895722,3.341369-4.869599,7.481628-7.816895,11.461609-.035247.537292-.070495,1.074524-.105774,1.611816.440583-.320496.881134-.64093,1.856324-1.414917m-48.167023,1.111023c-.474213-1.475586-.948425-2.951172-1.612213-5.016663-13.482392,9.120423-26.083924,18.582947-35.861695,31.60376c8.264405-2.724731,16.277863-5.833923,23.530762-10.205017c5.98996-3.609924,12.094269-7.864258,13.943146-16.38208m127.058411,93.934936c.071167,5.648255.09085,5.682618,5.318023,7.480347c4.077637-17.130371,8.124542-34.131592,12.171448-51.132873-.678864-.221558-1.357697-.443116-2.03656-.664673-3.830505,9.041565-7.948944,17.975647-11.379364,27.166565-1.94162,5.202087-2.75351,10.825805-4.073547,17.150634M382.960449,544.375488c2.648987-3.620056,5.297974-7.240112,7.946961-10.860168-.24527-.183167-.49054-.366272-.73581-.549439-5.355224,3.477173-10.710449,6.954346-16.283569,10.572998c1.204193,3.065308,2.383698,6.067749,3.52594,8.975403c1.697174-2.508667,3.397797-5.022461,5.546478-8.138794Z" fill="#1d1819"/><path d="M1234.04187,432.10675c-4.493042.420411-8.986084.840821-14.228149,1.331299.494384-2.940704.640869-5.146942,1.250366-7.216949c3.490478-11.857453,3.325439-23.750122-1.25647-35.099335-3.337158-8.266144-10.133789-13.922729-18.514404-17.065948-18.669067-7.002045-36.67981,5.497619-45.494751,17.401611-8.537842,11.529816-11.993774,24.996185-15.670899,38.389496-.897338,3.268463-2.305053,3.426971-5.127563,2.784241c0-1.718537,0-3.366791,0-5.015046c0-82.157653-.187378-164.315979.123169-246.472458.084351-22.324523,7.671387-42.161483,23.023071-58.934143c11.586792-12.659301,24.910401-22.859985,40.312866-30.16394c10.346436-4.906326,21.106446-9.093742,32.723389-10.01873c10.328003-.822357,20.677612-1.92701,31.019043-1.940025C1373.022461,79.947296,1483.84375,80,1594.664917,80c1.963013,0,3.925903,0,6.102661,0c0,117.790298,0,235.178284,0,352.783295-32.809204,0-65.419556,0-98.483276,0c0-90.301728,0-180.692749,0-271.498291-1.848023-.112061-3.274048-.273957-4.699951-.274186-77.991455-.012176-155.983155-.09111-233.974122.096817-9.142089.022019-18.611938.988221-24.558837,9.527924-1.943482,2.790665-2.746582,6.375351-4.407593,10.319977-.438843,1.709-.630982,2.694977-.630982,3.680954c0,82.490097.015137,164.980179.029053,247.47026Z" fill="#009b4c"/><path d="M1089.039062,161.112396c-1.694702.295914-3.389282.84903-5.08435.850434-54.982422.045196-109.964905.037262-164.947327.037262-1.807312,0-3.614685,0-5.852844,0c0,90.323104,0,180.36734,0,270.705291-32.821472,0-65.211426,0-98.035645,0c0-90.063995,0-180.1082,0-270.594726-60.815429,0-121.200195,0-181.851135,0c0-27.499939,0-54.557617,0-82.09417c151.667176,0,303.229553,0,455.258606.524269.482056,27.206734.497437,53.889191.512695,80.57164Z" fill="#009b4c"/><path d="M467,223c0-47.794754,0-95.089493,0-142.691948c32.972931,0,65.69574,0,98.710571,0c0,117.345421,0,234.714806,0,352.38839-32.67395,0-65.397674,0-98.710571,0C467,362.981537,467,293.240784,467,223Z" fill="#009b4c"/><path d="M1149.311279,459.294556c4.412842-16.700592,7.768189-33.312134,12.99878-49.310578c3.478881-10.640716,11.190551-18.916443,22.586547-22.33847c11.250489-3.378327,20.721436,3.616699,22.229737,15.151672c2.353882,18.001282-4.108032,34.055176-10.25708,50.095825-4.984986,13.003662-11.234253,25.521912-16.878662,38.274964-.550538,1.243744-.792725,2.623962-1.311158,4.39566c10.662476-4.323608,20.253052-.57724,29.771363,1.56778c9.902221,2.231567,19.054077,6.382782,26.134399,15.189026c1.552979-6.760193,2.904053-12.880036,4.371216-18.971955c2.170044-9.010559,15.067993-12.270996,21.351929-11.143921c4.052368.726868,5.739746,6.091889,4.489502,11.498932-3.692872,15.971619-7.226807,31.980225-10.757691,47.988709-.272583,1.235717-.035766,2.58374-.035766,4.713257c6.349487-12.559937,12.128662-24.447205,18.379882-36.08075c1.886231-3.510376,5.529175-5.42337,9.857178-5.334717c4.927857.100952,7.148438,3.771057,8.399414,7.434021c2.939453,8.60669,5.193604,17.447449,7.87085,26.696839c1.923828-5.750794,3.800293-11.016419,5.440796-16.354493c1.886596-6.138366,3.380493-12.401275,5.38208-18.49945c2.287964-6.970093,11.61145-14.226441,17.815307-14.266876c7.574829-.049378,9.926026,2.882568,7.701416,10.236175-3.479004,11.499878-6.779174,23.085632-10.981689,34.325989-4.254028,11.378296-9.413208,22.503967-18.23645,31.240295-9.40979,9.317078-18.633911,8.724671-25.590088-3.730774-1.704224-3.051513-2.998535-6.332031-4.483643-9.512329-7.262207,12.705017-13.72351,26.209168-25.026611,36.124695-3.432617,3.011292-8.232178,5.081482-12.736939,6.064941-3.845581.8396-6.435424-2.004821-7.924682-6.222045-4.994507-14.141602-2.291138-28.168396-.041748-42.54303-4.396973,7.201538-8.274414,14.342895-12.913086,20.949829-5.84729,8.328857-12.125855,16.175354-22.221558,20.244812-9.373413,3.778259-22.312134-2.526001-25.66748-11.254273-3.678345-9.568664-3.273804-19.14447-.584595-28.954406c2.846069-10.382813,5.250855-20.906983,7.249756-31.482605.359985-1.904419-2.178345-4.35669-4.011719-7.716187-4.373413,10.261414-11.03418,17.492859-11.023559,28.626831.015258,16.006653-2.323487,32.014649-3.630982,48.02417-.387695,4.746338-.72229,9.497681-1.018677,14.250733-.601562,9.650085-1.1604,19.302795-1.732299,28.879272-12.94336.804382-22.704346-6.397827-24.124756-18.007568-.52649-4.30365.500488-8.801331.852539-13.207825.652588-8.164307,1.355957-16.324768,1.988403-24.490662.494507-6.385925.913818-12.777588,1.391968-19.526062-2.620972,0-4.684815,0-7.229859,0c.14441,6.928772-1.194702,13.757141-6.117797,19.142212-4.510254,4.933411-8.837037,10.428406-14.339478,13.979126-11.538696,7.445984-23.500732,14.390686-35.860107,20.358032-8.817139,4.257142-18.409424,6.854126-28.697022,4.34491-9.130859-2.227112-11.622681-9.295959-9.796997-16.638306c2.332642-9.380859,7.777588-17.19281,14.07251-24.541015c10.54126-12.305054,23.515137-21.679077,36.24292-31.757508-7.135742-5.936706-14.793213-11.805847-21.873169-18.304321-13.983765-12.835541-27.361084-26.225708-35.357544-43.944977-9.020264-19.987732-5.716736-38.694152,7.643677-55.685485c8.325927-10.588654,19.005371-16.657441,31.804565-19.712525c17.772949-4.242309,34.507568-3.830414,48.432251,10.213837c4.749878,4.790619,5.299316,11.025513,5.554321,17.075531.261841,6.21405-.585815,12.474884-1.005127,19.70105-1.916748-1.216645-3.48352-1.899079-4.64685-3.005646-4.160889-3.957703-7.9646-8.315399-12.307862-12.051453-8.360595-7.191681-18.183227-8.854614-28.662597-6.070221-5.689453,1.511689-11.734863,2.830445-16.670654,5.80896-13.079712,7.892975-13.876709,19.192139-5.690918,33.224213c9.489868,16.26767,22.928222,28.743683,37.402343,40.317993c6.440064,5.149811,12.842652,10.349854,19.398438,15.348633c1.286499.980957,3.483276,1.981384,4.775879,1.543335c8.187744-2.774292,16.292968-5.817505,24.31372-9.049194c4.153565-1.673523,4.467041-5.90091,5.208374-9.611664c2.27649-11.392792,4.482056-22.799958,6.658204-34.212433.577636-3.02945.949707-6.098145,1.676635-9.498535m23.881226-11.070343c2.745483-8.890534,5.490967-17.781067,8.23645-26.671601-.707031-.211425-1.414062-.422851-2.121094-.634277-2.463379,9.003326-4.926757,18.006653-8.076782,27.353363-.462402,2.073456-.924805,4.146881-1.387207,6.220337.232788.059997.465576.119995.698364.179993.687378-1.9805,1.374756-3.960968,2.650269-6.447815m28.788452,79.248504c-2.193726-.813965-4.387573-1.627929-7.222778-2.67987-4.166504,12.917602-8.689087,25.39447-8.869995,40.08966c2.292724-1.104431,4.027221-1.536071,5.224731-2.582336c7.661743-6.693604,12.946289-15.063477,15.785523-24.751587c2.181152-7.441834,2.365478-6.823181-4.917481-10.075867m-140.537109,56.565979c-.737183,1.20044-1.474366,2.400879-2.500733,4.072266c13.245484-3.907471,24.75354-9.047363,34.047974-18.476563c4.02185-4.080078,5.241943-8.287475,3.089233-15.035034-11.806396,10.019043-22.956909,19.481446-34.636474,29.439331m115.652954-87.582428c.270141.343293.540283.686615.810425,1.029908-.054444-.500855-.108887-1.00174-.810425-1.029908Z" fill="#1d1819"/><path d="M680.606384,459.753784c4.541016-8.579437,9.644837-16.752838,17.424683-22.835052c7.446838-5.821839,22.634949-8.972931,28.002746,2.833221c1.684998,3.706116,2.73108,8.009552,2.83545,12.071289.346435,13.486176.777221,27.026337-.047058,40.470856-.856263,13.965027-3.237915,27.831695-4.74292,41.764007-.635743,5.885499-.700135,11.831299-1.093018,17.745057-.214722,3.231445-.573059,6.453369-.891601,9.953918c4.593261-3.34137,9.242553-6.343018,13.378906-9.935425c1.479736-1.285095,1.960266-3.938904,2.481323-6.06958c1.720337-7.035583,2.967224-14.197326,4.925659-21.161621c2.482422-8.827515,2.702576-8.761108-3.719177-15.568176-.738953-.783325-1.408997-1.631653-1.649475-1.911957c5.198242-3.880646,10.054565-8.170013,15.569885-11.297028c2.211182-1.253631,5.955444-.347076,8.857239.263672c8.477356,1.784333,17.11261,3.253907,25.250305,6.094849c8.218628,2.869202,16.814514,7.112152,18.029541,16.881836.805603,6.478027-.288757,13.709717-2.448608,19.939758-5.852478,16.881165-14.974366,31.97992-28.409668,44.080567-9.26178,8.341674-19.416504,9.901062-29.566529,2.779358-2.863525-2.009156-4.548645-5.697693-6.227966-7.89972-5.78949,2.821472-11.388916,6.786743-17.589661,8.320008-13.785644,3.408752-24.510253-2.350708-23.841125-18.099549.730774-17.196289,2.5224-34.347412,3.839294-51.519165.364197-4.748718.909058-9.497497.978882-14.252014.150391-10.24762.046265-20.498962.046265-29.679535-19.21521,37.993866-39.983643,76.790314-49.151245,120.276825-5.092163,0-9.257813.715576-13.01294-.218811-3.201294-.796509-5.861328-3.613403-8.885559-5.31488-3.94635-2.220154-2.842163-5.116883-2.092285-8.666992c2.969544-14.059449,5.30304-28.252381,8.202942-42.327637c3.021606-14.666138,6.362427-29.267822,9.676758-43.87204c3.669983-16.171967,7.724914-32.261475,11.100586-48.493286c1.651367-7.940735,2.151855-16.121582,3.140442-24.197754.069641-.568634-.132874-1.170593-1.419739-2.393036-6.413452,8.243408-13.155518,16.255737-19.15564,24.789734-7.199219,10.239685-13.981323,20.792084-20.523315,31.466858-3.731385,6.088501-6.957032,12.54602-9.809326,19.099029-3.434327,7.89029-8.815064,13.219757-17.084595,15.701325-4.360047,1.308441-8.519898.389587-11.295471-2.680786-2.460877-2.722351-1.769471-6.335968.215393-9.857575c7.56372-13.419464,14.132629-27.442352,22.309997-40.463073c11.644043-18.540558,23.680237-36.918946,39.692749-52.218995c6.925476-6.617279,14.122437-12.783386,23.574341-15.424469c12.273255-3.429443,19.532288,1.489502,20.426453,13.812165.978515,13.484283-1.92926,26.607666-4.903687,39.683471-1.249389,5.492646-2.022644,11.093537-3.361328,17.208161-.390625,1.389892-.432312,2.216919-.526306,4.082825.819519-1.630066,1.153992-2.29535,1.488403-2.960633m96.395142,77.9646c1.620666-3.473755.190796-6.127381-2.821961-7.552368-3.05603-1.445496-6.480957-2.111206-9.619995-3.080078-1.464477,4.226989-3.198852,8.07196-4.106811,12.102966-1.732971,7.69397-3.070069,15.481384-4.363098,23.264709-.173584,1.044861.607238,2.577271,1.44519,3.322815.421265.374756,2.259888-.20459,2.954712-.874206c7.686096-7.406861,13.829895-15.815735,16.511963-27.183838Z" fill="#1d1819"/><path d="M889.516846,455.192871c6.445617,6.025971,4.333313,12.902924,3.011596,19.825226-1.111023,5.818329-1.682312,11.739746-2.547973,18.017853c11.256042-.688721,22.035156-1.658844,32.827026-1.833893c3.599121-.058411,7.255188,1.842987,10.842346,2.983276c4.834107,1.536682,9.625611,3.207215,14.437439,4.814118c8.625977,2.880615,17.096253,6.193054,22.382141,14.126342c1.582703,2.375367,2.310791,5.685853,2.427491,8.607911.450866,11.294372-4.107422,21.384887-9.01294,31.081176-5.751892,11.369385-13.429809,21.490601-22.856506,30.234925-9.478333,8.792175-26.581726,8.881653-33.479859-3.881531-6.848815,10.302917-16.811828,15.383972-28.658508,16.760986-11.020264,1.281006-20.434387-6.950195-21.946228-18.017456-1.84198-13.483825-.737732-26.711487,1.932556-39.973144c1.212647-6.022461,1.42865-12.245667,2.191529-19.246888-4.972596.65857-9.642212.976502-14.171387,1.948792-6.423279,1.378967-13.564942-1.683594-15.773865-7.238037-1.485718-3.73584,1.963135-13.147461,6.293518-15.105225c3.256043-1.472015,7.101746-1.795166,10.732605-2.243286c4.546021-.561096,9.139588-.970032,13.714844-.991669c4.256775-.020172,3.81543-2.798462,4.187622-5.59198c1.154785-8.667297,2.148499-17.385131,3.932312-25.931488c1.842224-8.826141,8.505127-12.128173,16.878662-9.162994.747864.264862,1.528381.437683,2.655579.816986m-8.474488,120.355286c2.585572-.94928,5.346314-1.585694,7.719239-2.914429c4.608642-2.580688,8.999511-5.550232,13.351318-8.27771c3.48114-16.131897,7.110107-32.948852,10.849915-50.279419-9.471619-2.406647-18.466919.925537-27.541871,2.17926-.824279,3.898865-1.758483,7.651551-2.394287,11.454041-1.654113,9.892334-3.586792,19.764954-4.596496,29.727722-.590332,5.824768-2.461548,12.163513,2.612182,18.110535m50.910157-48.116028c-5.202576,10.691284-7.007203,22.286682-8.868897,33.848144-.170776,1.060547.5802,3.065003,1.317505,3.293519c1.162293.360046,3.1073.039611,3.973938-.781312c7.60199-7.200866,12.904968-15.991333,16.433899-25.760559.747742-2.069946.548035-6.219726-.670532-6.936157-3.642639-2.141907-8.007141-3.056091-12.185913-3.663635Z" fill="#1d1819"/></svg>
